<svg width="87" height="28" viewBox="0 0 87 28" fill="none" xmlns="http://www.w3.org/2000/svg">
<rect x="0.361847" y="0.361847" width="86.2763" height="27.2763" rx="4.46278" fill="black"/>
<path d="M58.9995 13.4407V15.0444H57.9602V16.0961H58.9995V19.6696C58.9995 20.8898 59.5702 21.3779 61.0059 21.3779C61.2582 21.3779 61.4985 21.3488 61.7087 21.314V20.2739C61.5285 20.2913 61.4144 20.3029 61.2162 20.3029C60.5734 20.3029 60.291 20.0124 60.291 19.35V16.0961H61.7087V15.0444H60.291V13.4407H58.9995Z" fill="white"/>
<path d="M65.3662 21.4651C67.2765 21.4651 68.4479 20.2274 68.4479 18.1763C68.4479 16.1368 67.2705 14.8933 65.3662 14.8933C63.4559 14.8933 62.2785 16.1368 62.2785 18.1763C62.2785 20.2274 63.4499 21.4651 65.3662 21.4651ZM65.3662 20.3552C64.2428 20.3552 63.6121 19.5592 63.6121 18.1763C63.6121 16.805 64.2428 16.0031 65.3662 16.0031C66.4835 16.0031 67.1203 16.805 67.1203 18.1763C67.1203 19.5534 66.4835 20.3552 65.3662 20.3552Z" fill="white"/>
<path d="M69.4501 21.343H70.7417V17.6068C70.7417 16.7178 71.4325 16.1193 72.4117 16.1193C72.64 16.1193 73.0244 16.16 73.1326 16.1949V14.9631C72.9944 14.9282 72.7481 14.9108 72.5559 14.9108C71.7029 14.9108 70.976 15.364 70.7898 15.9857H70.6936V15.0153H69.4501V21.343Z" fill="white"/>
<path d="M76.3395 15.9567C77.2946 15.9567 77.9194 16.6016 77.9494 17.5952H74.6454C74.7175 16.6074 75.3843 15.9567 76.3395 15.9567ZM77.9434 19.6347C77.7031 20.1286 77.1685 20.4017 76.3875 20.4017C75.3543 20.4017 74.6875 19.6986 74.6454 18.5888V18.5191H79.265V18.0833C79.265 16.0961 78.1657 14.8933 76.3455 14.8933C74.5013 14.8933 73.3299 16.1775 73.3299 18.1995C73.3299 20.2216 74.4772 21.4651 76.3515 21.4651C77.8473 21.4651 78.8926 20.7678 79.1869 19.6347H77.9434Z" fill="white"/>
<path d="M50.5297 19.0063C50.6293 20.5601 51.9679 21.5538 53.9604 21.5538C56.0898 21.5538 57.4222 20.5119 57.4222 18.8497C57.4222 17.5429 56.6626 16.8202 54.8196 16.4046L53.8296 16.1697C52.6591 15.9047 52.1859 15.5494 52.1859 14.9291C52.1859 14.1462 52.9206 13.6343 54.0226 13.6343C55.0687 13.6343 55.7909 14.1341 55.9217 14.9351H57.279C57.1981 13.4717 55.8656 12.4418 54.0413 12.4418C52.08 12.4418 50.7725 13.4717 50.7725 15.0194C50.7725 16.2962 51.5134 17.055 53.1385 17.4224L54.2966 17.6934C55.4858 17.9644 56.0088 18.3619 56.0088 19.0244C56.0088 19.7953 55.187 20.3553 54.0662 20.3553C52.8645 20.3553 52.0302 19.8314 51.9119 19.0063H50.5297Z" fill="white"/>
<path d="M37.1505 14.9108C36.2614 14.9108 35.4925 15.3407 35.096 16.0612H34.9999V15.0153H33.7564V23.4464H35.0479V20.3843H35.1501C35.4925 21.0525 36.2314 21.4476 37.1625 21.4476C38.8145 21.4476 39.8657 20.1867 39.8657 18.1763C39.8657 16.1658 38.8145 14.9108 37.1505 14.9108ZM36.784 20.3262C35.7027 20.3262 35.0239 19.5011 35.0239 18.1821C35.0239 16.8573 35.7027 16.0322 36.79 16.0322C37.8834 16.0322 38.5381 16.8399 38.5381 18.1763C38.5381 19.5185 37.8834 20.3262 36.784 20.3262Z" fill="white"/>
<path d="M44.3851 14.9108C43.496 14.9108 42.7271 15.3407 42.3306 16.0612H42.2345V15.0153H40.991V23.4464H42.2826V20.3843H42.3847C42.7271 21.0525 43.466 21.4476 44.3971 21.4476C46.0491 21.4476 47.1004 20.1867 47.1004 18.1763C47.1004 16.1658 46.0491 14.9108 44.3851 14.9108ZM44.0187 20.3262C42.9374 20.3262 42.2585 19.5011 42.2585 18.1821C42.2585 16.8573 42.9374 16.0322 44.0247 16.0322C45.118 16.0322 45.7728 16.8399 45.7728 18.1763C45.7728 19.5185 45.118 20.3262 44.0187 20.3262Z" fill="white"/>
<path d="M31.4391 21.343H32.921L29.6771 12.6526H28.1765L24.9326 21.343H26.3647L27.1928 19.0364H30.6172L31.4391 21.343ZM28.8552 14.2305H28.961L30.2623 17.9042H27.5477L28.8552 14.2305Z" fill="white"/>
<path d="M25.8008 6.09763V10.2899H27.3657C28.6572 10.2899 29.4051 9.52004 29.4051 8.18071C29.4051 6.86172 28.6512 6.09763 27.3657 6.09763H25.8008ZM26.4736 6.69031H27.2906C28.1887 6.69031 28.7203 7.24231 28.7203 8.18943C28.7203 9.15107 28.1977 9.69727 27.2906 9.69727H26.4736V6.69031Z" fill="white"/>
<path d="M31.6957 10.351C32.6508 10.351 33.2365 9.73213 33.2365 8.70657C33.2365 7.68682 32.6478 7.06509 31.6957 7.06509C30.7405 7.06509 30.1518 7.68682 30.1518 8.70657C30.1518 9.73213 30.7375 10.351 31.6957 10.351ZM31.6957 9.79604C31.134 9.79604 30.8186 9.39802 30.8186 8.70657C30.8186 8.02092 31.134 7.62 31.6957 7.62C32.2544 7.62 32.5727 8.02092 32.5727 8.70657C32.5727 9.39512 32.2544 9.79604 31.6957 9.79604Z" fill="white"/>
<path d="M38.2243 7.1261H37.5786L36.9959 9.54038H36.9448L36.272 7.1261H35.6532L34.9804 9.54038H34.9324L34.3467 7.1261H33.6919L34.593 10.2899H35.2568L35.9296 7.95991H35.9806L36.6564 10.2899H37.3263L38.2243 7.1261Z" fill="white"/>
<path d="M38.968 10.2899H39.6138V8.43928C39.6138 7.94539 39.9172 7.63743 40.3947 7.63743C40.8723 7.63743 41.1006 7.89019 41.1006 8.39861V10.2899H41.7464V8.24172C41.7464 7.48926 41.3439 7.06509 40.614 7.06509C40.1214 7.06509 39.797 7.27717 39.6378 7.62871H39.5898V7.1261H38.968V10.2899Z" fill="white"/>
<path d="M42.7634 10.2899H43.4092V5.89136H42.7634V10.2899Z" fill="white"/>
<path d="M45.8379 10.351C46.7931 10.351 47.3788 9.73213 47.3788 8.70657C47.3788 7.68682 46.79 7.06509 45.8379 7.06509C44.8828 7.06509 44.294 7.68682 44.294 8.70657C44.294 9.73213 44.8797 10.351 45.8379 10.351ZM45.8379 9.79604C45.2762 9.79604 44.9608 9.39802 44.9608 8.70657C44.9608 8.02092 45.2762 7.62 45.8379 7.62C46.3966 7.62 46.715 8.02092 46.715 8.70657C46.715 9.39512 46.3966 9.79604 45.8379 9.79604Z" fill="white"/>
<path d="M49.3029 9.81638C48.9514 9.81638 48.6961 9.65078 48.6961 9.36606C48.6961 9.08716 48.9004 8.93899 49.3509 8.90994L50.1499 8.86055V9.12493C50.1499 9.51714 49.7895 9.81638 49.3029 9.81638ZM49.1377 10.3422C49.5672 10.3422 49.9246 10.1621 50.1199 9.84543H50.1709V10.2899H50.7927V8.12842C50.7927 7.46021 50.3301 7.06509 49.5101 7.06509C48.7682 7.06509 48.2396 7.41372 48.1735 7.95701H48.7983C48.8704 7.7333 49.1197 7.60547 49.4801 7.60547C49.9216 7.60547 50.1499 7.79431 50.1499 8.12842V8.40151L49.2638 8.4509C48.4859 8.49739 48.0474 8.82568 48.0474 9.39512C48.0474 9.97327 48.5069 10.3422 49.1377 10.3422Z" fill="white"/>
<path d="M52.9841 10.3422C53.4346 10.3422 53.8161 10.136 54.0113 9.79023H54.0624V10.2899H54.6811V5.89136H54.0354V7.62871H53.9873C53.8101 7.28008 53.4316 7.0738 52.9841 7.0738C52.1581 7.0738 51.6265 7.70715 51.6265 8.70657C51.6265 9.70889 52.1521 10.3422 52.9841 10.3422ZM53.1673 7.63452C53.708 7.63452 54.0474 8.04998 54.0474 8.70947C54.0474 9.37188 53.711 9.78152 53.1673 9.78152C52.6207 9.78152 52.2933 9.37769 52.2933 8.70657C52.2933 8.04126 52.6237 7.63452 53.1673 7.63452Z" fill="white"/>
<path d="M58.8688 10.351C59.8239 10.351 60.4096 9.73213 60.4096 8.70657C60.4096 7.68682 59.8209 7.06509 58.8688 7.06509C57.9136 7.06509 57.3249 7.68682 57.3249 8.70657C57.3249 9.73213 57.9106 10.351 58.8688 10.351ZM58.8688 9.79604C58.3071 9.79604 57.9917 9.39802 57.9917 8.70657C57.9917 8.02092 58.3071 7.62 58.8688 7.62C59.4275 7.62 59.7458 8.02092 59.7458 8.70657C59.7458 9.39512 59.4275 9.79604 58.8688 9.79604Z" fill="white"/>
<path d="M61.2645 10.2899H61.9103V8.43928C61.9103 7.94539 62.2136 7.63743 62.6912 7.63743C63.1688 7.63743 63.397 7.89019 63.397 8.39861V10.2899H64.0428V8.24172C64.0428 7.48926 63.6403 7.06509 62.9105 7.06509C62.4179 7.06509 62.0935 7.27717 61.9343 7.62871H61.8862V7.1261H61.2645V10.2899Z" fill="white"/>
<path d="M67.017 6.33877V7.14062H66.4974V7.66648H67.017V9.45322C67.017 10.0633 67.3023 10.3074 68.0202 10.3074C68.1464 10.3074 68.2665 10.2928 68.3716 10.2754V9.75537C68.2815 9.76409 68.2244 9.7699 68.1253 9.7699C67.8039 9.7699 67.6628 9.62463 67.6628 9.29343V7.66648H68.3716V7.14062H67.6628V6.33877H67.017Z" fill="white"/>
<path d="M69.2385 10.2899H69.8843V8.44219C69.8843 7.96282 70.1786 7.64033 70.7072 7.64033C71.1638 7.64033 71.4071 7.896 71.4071 8.40151V10.2899H72.0529V8.24753C72.0529 7.49507 71.6233 7.06799 70.9265 7.06799C70.4339 7.06799 70.0885 7.28008 69.9293 7.63452H69.8782V5.89136H69.2385V10.2899Z" fill="white"/>
<path d="M74.3825 7.59675C74.86 7.59675 75.1724 7.91924 75.1874 8.41604H73.5354C73.5715 7.92214 73.9049 7.59675 74.3825 7.59675ZM75.1844 9.43579C75.0643 9.68274 74.797 9.81929 74.4065 9.81929C73.8899 9.81929 73.5565 9.46775 73.5354 8.91284V8.87798H75.8452V8.66008C75.8452 7.66648 75.2956 7.06509 74.3855 7.06509C73.4634 7.06509 72.8777 7.70715 72.8777 8.71819C72.8777 9.72922 73.4513 10.351 74.3885 10.351C75.1364 10.351 75.659 10.0023 75.8062 9.43579H75.1844Z" fill="white"/>
<path d="M17.925 14.2106C17.9407 13.0339 18.594 11.9204 19.6305 11.3041C18.9766 10.4009 17.8815 9.82822 16.7421 9.79374C15.5268 9.67036 14.3487 10.4971 13.7294 10.4971C13.0982 10.4971 12.1447 9.80599 11.118 9.82643C9.77968 9.86825 8.53205 10.6042 7.88094 11.7359C6.48132 14.0798 7.52531 17.5246 8.86604 19.4192C9.53683 20.3469 10.3208 21.3833 11.3466 21.3465C12.3504 21.3062 12.7253 20.7274 13.937 20.7274C15.1374 20.7274 15.4892 21.3465 16.5358 21.3231C17.6129 21.3062 18.2916 20.3913 18.9388 19.4547C19.4208 18.7937 19.7916 18.0631 20.0377 17.29C18.7719 16.7721 17.9265 15.54 17.925 14.2106Z" fill="white"/>
<path d="M15.9482 8.54774C16.5355 7.8658 16.8248 6.98927 16.7547 6.10431C15.8575 6.19546 15.0286 6.61025 14.4334 7.26604C13.8514 7.90677 13.5485 8.76787 13.6057 9.61901C14.5033 9.62795 15.3857 9.2244 15.9482 8.54774Z" fill="white"/>
<rect x="0.361847" y="0.361847" width="86.2763" height="27.2763" rx="4.46278" stroke="#A6A6A6" stroke-width="0.723695"/>
</svg>
