<svg width="87" height="25" viewBox="0 0 87 25" fill="none" xmlns="http://www.w3.org/2000/svg">
<rect x="0.325804" y="0.325804" width="86.3484" height="24.3484" rx="4.01826" fill="black"/>
<path d="M44.3981 13.5945C42.8655 13.5945 41.6164 14.7126 41.6164 16.2526C41.6164 17.7832 42.8655 18.9107 44.3981 18.9107C45.9313 18.9107 47.1805 17.7832 47.1805 16.2526C47.1798 14.7126 45.9307 13.5945 44.3981 13.5945ZM44.3981 17.8645C43.5582 17.8645 42.8342 17.2001 42.8342 16.2532C42.8342 15.2964 43.5588 14.642 44.3981 14.642C45.238 14.642 45.962 15.2964 45.962 16.2532C45.962 17.1995 45.238 17.8645 44.3981 17.8645ZM38.329 13.5945C36.7964 13.5945 35.5473 14.7126 35.5473 16.2526C35.5473 17.7832 36.7964 18.9107 38.329 18.9107C39.8623 18.9107 41.1114 17.7832 41.1114 16.2526C41.1114 14.7126 39.8623 13.5945 38.329 13.5945ZM38.329 17.8645C37.4891 17.8645 36.7652 17.2001 36.7652 16.2532C36.7652 15.2964 37.4897 14.642 38.329 14.642C39.1689 14.642 39.8929 15.2964 39.8929 16.2532C39.8935 17.1995 39.1689 17.8645 38.329 17.8645ZM31.1105 14.4107V15.5382H33.9241C33.8401 16.1726 33.6198 16.6357 33.2836 16.9576C32.8744 17.3501 32.2339 17.7832 31.1105 17.7832C29.3785 17.7832 28.0245 16.4439 28.0245 14.7826C28.0245 13.1214 29.3785 11.782 31.1105 11.782C32.0449 11.782 32.7271 12.1345 33.2308 12.5876L34.0603 11.792C33.3566 11.1476 32.4228 10.6545 31.1105 10.6545C28.738 10.6545 26.7434 12.507 26.7434 14.7826C26.7434 17.0582 28.738 18.9107 31.1105 18.9107C32.3909 18.9107 33.3572 18.5076 34.1125 17.7526C34.8892 17.0076 35.1309 15.9601 35.1309 15.1145C35.1309 14.8532 35.1101 14.6114 35.0677 14.4101H31.1105V14.4107ZM60.6336 15.2864C60.4029 14.6926 59.6992 13.5945 58.2611 13.5945C56.8334 13.5945 55.6468 14.672 55.6468 16.2526C55.6468 17.7426 56.823 18.9107 58.3973 18.9107C59.6673 18.9107 60.4023 18.1657 60.7072 17.7326L59.7624 17.1282C59.4477 17.5714 59.0169 17.8632 58.3973 17.8632C57.7782 17.8632 57.3371 17.5914 57.0536 17.0576L60.7594 15.5876L60.6336 15.2864ZM56.8543 16.1726C56.823 15.1451 57.6838 14.622 58.3034 14.622C58.7863 14.622 59.1955 14.8539 59.3323 15.1857L56.8543 16.1726ZM53.8419 18.7501H55.0591V10.937H53.8419V18.7501ZM51.8466 14.1889H51.8049C51.5319 13.8764 51.0067 13.5945 50.346 13.5945C48.96 13.5945 47.69 14.7626 47.69 16.2632C47.69 17.7532 48.96 18.9114 50.346 18.9114C51.0074 18.9114 51.5319 18.6295 51.8049 18.3076H51.8466V18.6901C51.8466 19.707 51.2797 20.2507 50.3668 20.2507C49.6214 20.2507 49.1594 19.7376 48.9704 19.3045L47.9103 19.7276C48.2146 20.432 49.0226 21.2982 50.3668 21.2982C51.7945 21.2982 53.0019 20.4926 53.0019 18.5289V13.7564H51.8473V14.1889H51.8466ZM50.4509 17.8645C49.611 17.8645 48.9079 17.1895 48.9079 16.2632C48.9079 15.3264 49.611 14.642 50.4509 14.642C51.2797 14.642 51.9307 15.3264 51.9307 16.2632C51.9307 17.1895 51.2797 17.8645 50.4509 17.8645ZM66.3378 10.937H63.4244V18.7501H64.6397V15.7901H66.3371C67.6847 15.7901 69.01 14.8545 69.01 13.3639C69.01 11.8732 67.6853 10.937 66.3378 10.937ZM66.369 14.7026H64.6397V12.0245H66.369C67.278 12.0245 67.7941 12.7464 67.7941 13.3639C67.7941 13.9689 67.278 14.7026 66.369 14.7026ZM73.8834 13.5807C73.0031 13.5807 72.0915 13.9526 71.7142 14.777L72.7933 15.2089C73.0239 14.777 73.454 14.6357 73.9043 14.6357C74.5331 14.6357 75.1723 14.9976 75.1827 15.6407V15.7214C74.9625 15.6007 74.4907 15.4201 73.9147 15.4201C72.7516 15.4201 71.5669 16.0332 71.5669 17.1789C71.5669 18.2245 72.5209 18.8976 73.5895 18.8976C74.4066 18.8976 74.8576 18.5457 75.1404 18.1332H75.1821V18.7364H76.3563V15.7407C76.3569 14.3545 75.2765 13.5807 73.8834 13.5807ZM73.7361 17.8626C73.3387 17.8626 72.7828 17.6714 72.7828 17.1989C72.7828 16.5957 73.4748 16.3645 74.0724 16.3645C74.606 16.3645 74.8582 16.4751 75.1827 16.6257C75.0882 17.3501 74.4386 17.8626 73.7361 17.8626ZM80.6321 13.7514L79.2383 17.1389H79.1966L77.7501 13.7514H76.4403L78.6095 18.4857L77.3728 21.1195H78.6408L81.9842 13.7514H80.6321ZM69.6812 18.7501H70.8964V10.937H69.6812V18.7501Z" fill="white"/>
<path d="M30.898 6.40187C30.898 6.92562 30.7364 7.3425 30.4125 7.65375C30.045 8.02375 29.5654 8.20875 28.9764 8.20875C28.4121 8.20875 27.9318 8.02124 27.5376 7.64624C27.1428 7.27062 26.9453 6.80562 26.9453 6.25062C26.9453 5.69499 27.1428 5.23 27.5376 4.855C27.9318 4.47937 28.4121 4.29187 28.9764 4.29187C29.2566 4.29187 29.5244 4.34437 29.7785 4.44875C30.0333 4.55375 30.2372 4.69312 30.3897 4.8675L30.0463 5.1975C29.7876 4.90062 29.4312 4.7525 28.9757 4.7525C28.5639 4.7525 28.2081 4.89125 27.9077 5.16875C27.6073 5.44625 27.4575 5.80687 27.4575 6.25C27.4575 6.69312 27.6073 7.05374 27.9077 7.33124C28.2081 7.60874 28.5639 7.74749 28.9757 7.74749C29.4123 7.74749 29.7766 7.60812 30.0678 7.32874C30.2568 7.14687 30.3663 6.89374 30.3956 6.56937H28.9757V6.11875H30.87C30.8895 6.21687 30.898 6.31125 30.898 6.40187Z" fill="white"/>
<path d="M33.902 4.83566H32.1218V6.02441H33.7273V6.47503H32.1218V7.66378H33.902V8.12503H31.6194V4.37503H33.902V4.83566Z" fill="white"/>
<path d="M36.0203 8.12503H35.5179V4.83566H34.4258V4.37503H37.1124V4.83566H36.0203V8.12503Z" fill="white"/>
<path d="M39.0561 8.12503V4.37503H39.5585V8.12503H39.0561Z" fill="white"/>
<path d="M41.7864 8.12503H41.284V4.83566H40.1919V4.37503H42.8785V4.83566H41.7864V8.12503Z" fill="white"/>
<path d="M47.9642 7.64065C47.5797 8.0194 47.1021 8.20878 46.5306 8.20878C45.9592 8.20878 45.4816 8.0194 45.0978 7.64065C44.7133 7.2619 44.5217 6.79815 44.5217 6.25002C44.5217 5.7019 44.7133 5.23815 45.0978 4.8594C45.4816 4.48065 45.9592 4.29065 46.5306 4.29065C47.0988 4.29065 47.5758 4.48127 47.9616 4.8619C48.3473 5.24252 48.5402 5.70502 48.5402 6.25002C48.5402 6.79815 48.348 7.2619 47.9642 7.64065ZM45.4685 7.32627C45.7578 7.60752 46.1117 7.74752 46.5306 7.74752C46.9496 7.74752 47.3041 7.6069 47.5928 7.32627C47.8821 7.04502 48.0274 6.68627 48.0274 6.25002C48.0274 5.81377 47.8821 5.45502 47.5928 5.17377C47.3041 4.89252 46.9496 4.75252 46.5306 4.75252C46.1117 4.75252 45.7578 4.89315 45.4685 5.17377C45.1799 5.45502 45.0345 5.81377 45.0345 6.25002C45.0345 6.68627 45.1799 7.04502 45.4685 7.32627Z" fill="white"/>
<path d="M49.2453 8.12503V4.37503H49.8565L51.7566 7.29191H51.7781L51.7566 6.56941V4.37503H52.259V8.12503H51.7344L49.7464 5.06628H49.7248L49.7464 5.78878V8.12503H49.2453Z" fill="white"/>
<path d="M30.898 6.40187C30.898 6.92562 30.7364 7.3425 30.4125 7.65375C30.045 8.02375 29.5654 8.20875 28.9764 8.20875C28.4121 8.20875 27.9318 8.02124 27.5376 7.64624C27.1428 7.27062 26.9453 6.80562 26.9453 6.25062C26.9453 5.69499 27.1428 5.23 27.5376 4.855C27.9318 4.47937 28.4121 4.29187 28.9764 4.29187C29.2566 4.29187 29.5244 4.34437 29.7785 4.44875C30.0333 4.55375 30.2372 4.69312 30.3897 4.8675L30.0463 5.1975C29.7876 4.90062 29.4312 4.7525 28.9757 4.7525C28.5639 4.7525 28.2081 4.89125 27.9077 5.16875C27.6073 5.44625 27.4575 5.80687 27.4575 6.25C27.4575 6.69312 27.6073 7.05374 27.9077 7.33124C28.2081 7.60874 28.5639 7.74749 28.9757 7.74749C29.4123 7.74749 29.7766 7.60812 30.0678 7.32874C30.2568 7.14687 30.3663 6.89374 30.3956 6.56937H28.9757V6.11875H30.87C30.8895 6.21687 30.898 6.31125 30.898 6.40187Z" stroke="white" stroke-width="0.130322" stroke-miterlimit="10"/>
<path d="M33.902 4.83566H32.1218V6.02441H33.7273V6.47503H32.1218V7.66378H33.902V8.12503H31.6194V4.37503H33.902V4.83566Z" stroke="white" stroke-width="0.130322" stroke-miterlimit="10"/>
<path d="M36.0203 8.12503H35.5179V4.83566H34.4258V4.37503H37.1124V4.83566H36.0203V8.12503Z" stroke="white" stroke-width="0.130322" stroke-miterlimit="10"/>
<path d="M39.0561 8.12503V4.37503H39.5585V8.12503H39.0561Z" stroke="white" stroke-width="0.130322" stroke-miterlimit="10"/>
<path d="M41.7864 8.12503H41.284V4.83566H40.1919V4.37503H42.8785V4.83566H41.7864V8.12503Z" stroke="white" stroke-width="0.130322" stroke-miterlimit="10"/>
<path d="M47.9642 7.64065C47.5797 8.0194 47.1021 8.20878 46.5306 8.20878C45.9592 8.20878 45.4816 8.0194 45.0978 7.64065C44.7133 7.2619 44.5217 6.79815 44.5217 6.25002C44.5217 5.7019 44.7133 5.23815 45.0978 4.8594C45.4816 4.48065 45.9592 4.29065 46.5306 4.29065C47.0988 4.29065 47.5758 4.48127 47.9616 4.8619C48.3473 5.24252 48.5402 5.70502 48.5402 6.25002C48.5402 6.79815 48.348 7.2619 47.9642 7.64065ZM45.4685 7.32627C45.7578 7.60752 46.1117 7.74752 46.5306 7.74752C46.9496 7.74752 47.3041 7.6069 47.5928 7.32627C47.8821 7.04502 48.0274 6.68627 48.0274 6.25002C48.0274 5.81377 47.8821 5.45502 47.5928 5.17377C47.3041 4.89252 46.9496 4.75252 46.5306 4.75252C46.1117 4.75252 45.7578 4.89315 45.4685 5.17377C45.1799 5.45502 45.0345 5.81377 45.0345 6.25002C45.0345 6.68627 45.1799 7.04502 45.4685 7.32627Z" stroke="white" stroke-width="0.130322" stroke-miterlimit="10"/>
<path d="M49.2453 8.12503V4.37503H49.8565L51.7566 7.29191H51.7781L51.7566 6.56941V4.37503H52.259V8.12503H51.7344L49.7464 5.06628H49.7248L49.7464 5.78878V8.12503H49.2453Z" stroke="white" stroke-width="0.130322" stroke-miterlimit="10"/>
<g filter="url(#filter0_ii_980_44092)">
<path d="M6.79999 4.71127C6.61037 4.90377 6.49829 5.20252 6.49829 5.5894V19.4119C6.49829 19.7994 6.61037 20.0975 6.79999 20.29L6.84821 20.335L14.921 12.5919V12.5006V12.4094L6.84821 4.66565L6.79999 4.71127Z" fill="url(#paint0_linear_980_44092)"/>
<path d="M17.6114 15.1737L14.9209 12.5919V12.5006V12.4094L17.612 9.82813L17.6726 9.86125L20.861 11.5988C21.7713 12.095 21.7713 12.9069 20.861 13.4037L17.6726 15.1413L17.6114 15.1737Z" fill="url(#paint1_linear_980_44092)"/>
<g filter="url(#filter1_i_980_44092)">
<path d="M17.6726 15.1407L14.9202 12.5007L6.79981 20.29C7.09955 20.595 7.59542 20.6325 8.15385 20.3288L17.6726 15.1407Z" fill="url(#paint2_linear_980_44092)"/>
</g>
<path d="M17.6726 9.86062L8.15385 4.67312C7.59542 4.36875 7.09955 4.40687 6.79981 4.71187L14.9208 12.5012L17.6726 9.86062Z" fill="url(#paint3_linear_980_44092)"/>
</g>
<rect x="0.325804" y="0.325804" width="86.3484" height="24.3484" rx="4.01826" stroke="#A6A6A6" stroke-width="0.651609"/>
<defs>
<filter id="filter0_ii_980_44092" x="6.49829" y="4.46307" width="15.0454" height="16.0755" filterUnits="userSpaceOnUse" color-interpolation-filters="sRGB">
<feFlood flood-opacity="0" result="BackgroundImageFix"/>
<feBlend mode="normal" in="SourceGraphic" in2="BackgroundImageFix" result="shape"/>
<feColorMatrix in="SourceAlpha" type="matrix" values="0 0 0 0 0 0 0 0 0 0 0 0 0 0 0 0 0 0 127 0" result="hardAlpha"/>
<feOffset dy="-0.0977413"/>
<feComposite in2="hardAlpha" operator="arithmetic" k2="-1" k3="1"/>
<feColorMatrix type="matrix" values="0 0 0 0 0 0 0 0 0 0 0 0 0 0 0 0 0 0 0.12 0"/>
<feBlend mode="normal" in2="shape" result="effect1_innerShadow_980_44092"/>
<feColorMatrix in="SourceAlpha" type="matrix" values="0 0 0 0 0 0 0 0 0 0 0 0 0 0 0 0 0 0 127 0" result="hardAlpha"/>
<feOffset dy="0.0977413"/>
<feComposite in2="hardAlpha" operator="arithmetic" k2="-1" k3="1"/>
<feColorMatrix type="matrix" values="0 0 0 0 1 0 0 0 0 1 0 0 0 0 1 0 0 0 0.25 0"/>
<feBlend mode="normal" in2="effect1_innerShadow_980_44092" result="effect2_innerShadow_980_44092"/>
</filter>
<filter id="filter1_i_980_44092" x="6.7998" y="12.5007" width="10.8728" height="8.0379" filterUnits="userSpaceOnUse" color-interpolation-filters="sRGB">
<feFlood flood-opacity="0" result="BackgroundImageFix"/>
<feBlend mode="normal" in="SourceGraphic" in2="BackgroundImageFix" result="shape"/>
<feColorMatrix in="SourceAlpha" type="matrix" values="0 0 0 0 0 0 0 0 0 0 0 0 0 0 0 0 0 0 127 0" result="hardAlpha"/>
<feOffset dy="-0.0977413"/>
<feComposite in2="hardAlpha" operator="arithmetic" k2="-1" k3="1"/>
<feColorMatrix type="matrix" values="0 0 0 0 0 0 0 0 0 0 0 0 0 0 0 0 0 0 0.08 0"/>
<feBlend mode="normal" in2="shape" result="effect1_innerShadow_980_44092"/>
</filter>
<linearGradient id="paint0_linear_980_44092" x1="14.2054" y1="5.44315" x2="3.72575" y2="16.369" gradientUnits="userSpaceOnUse">
<stop stop-color="#00A0FF"/>
<stop offset="0.0066" stop-color="#00A1FF"/>
<stop offset="0.2601" stop-color="#00BEFF"/>
<stop offset="0.5122" stop-color="#00D2FF"/>
<stop offset="0.7604" stop-color="#00DFFF"/>
<stop offset="1" stop-color="#00E3FF"/>
</linearGradient>
<linearGradient id="paint1_linear_980_44092" x1="22.0459" y1="12.5006" x2="6.27965" y2="12.5006" gradientUnits="userSpaceOnUse">
<stop stop-color="#FFE000"/>
<stop offset="0.4087" stop-color="#FFBD00"/>
<stop offset="0.7754" stop-color="#FFA500"/>
<stop offset="1" stop-color="#FF9C00"/>
</linearGradient>
<linearGradient id="paint2_linear_980_44092" x1="16.1778" y1="13.9344" x2="1.96612" y2="28.7511" gradientUnits="userSpaceOnUse">
<stop stop-color="#FF3A44"/>
<stop offset="1" stop-color="#C31162"/>
</linearGradient>
<linearGradient id="paint3_linear_980_44092" x1="4.75466" y1="0.110496" x2="11.1006" y2="6.72659" gradientUnits="userSpaceOnUse">
<stop stop-color="#32A071"/>
<stop offset="0.0685" stop-color="#2DA771"/>
<stop offset="0.4762" stop-color="#15CF74"/>
<stop offset="0.8009" stop-color="#06E775"/>
<stop offset="1" stop-color="#00F076"/>
</linearGradient>
</defs>
</svg>
