<svg width="250" height="253" viewBox="0 0 250 253" fill="none" xmlns="http://www.w3.org/2000/svg">
<g opacity="0.4">
<g clip-path="url(#clip0_18651_395619)">
<rect width="250" height="253" rx="4" fill="white"/>
<g filter="url(#filter0_f_18651_395619)">
<path d="M6 6V17.4762V28.9524V40.4286V51.9048V63.381V74.8571V86.3333H17.3333H28.6667H40H51.3333H62.6667H74H85.3333V74.8571V63.381V51.9048V40.4286V28.9524V17.4762V6H74H62.6667H51.3333H40H28.6667H17.3333H6ZM96.6667 6V17.4762V28.9524H108V17.4762H119.333V6H108H96.6667ZM119.333 17.4762V28.9524H130.667V17.4762H119.333ZM130.667 28.9524V40.4286H142H153.333V28.9524V17.4762V6H142V17.4762V28.9524H130.667ZM130.667 40.4286H119.333H108H96.6667V51.9048H108H119.333V63.381H108V74.8571H119.333V86.3333H130.667V74.8571H142V86.3333H130.667V97.8095H119.333V109.286H130.667H142V120.762H153.333V109.286V97.8095V86.3333V74.8571V63.381H142V51.9048H130.667V40.4286ZM142 120.762H130.667V132.238H119.333V143.714V155.19H130.667V166.667V178.143H119.333H108V166.667H119.333V155.19H108V143.714V132.238H96.6667V120.762H108V132.238H119.333V120.762V109.286H108H96.6667V97.8095H85.3333H74H62.6667V109.286H51.3333V120.762H40V109.286H51.3333V97.8095H40H28.6667V109.286H17.3333V120.762V132.238V143.714H28.6667V132.238H40H51.3333H62.6667V120.762H74V109.286H85.3333V120.762H74V132.238H85.3333V143.714H74V155.19H85.3333H96.6667V166.667V178.143V189.619H108V201.095H119.333H130.667H142V212.571H130.667H119.333H108V201.095H96.6667V212.571V224.048H108V235.524H96.6667V247H108H119.333V235.524H130.667V247H142H153.333H164.667H176V235.524H187.333V247H198.667H210H221.333V235.524H210H198.667V224.048H187.333V212.571H176V224.048H164.667H153.333V235.524H142V224.048H153.333V212.571V201.095V189.619H164.667V178.143H153.333H142V166.667H153.333V155.19V143.714V132.238H142V120.762ZM176 212.571V201.095H164.667V212.571H176ZM198.667 224.048H210H221.333V212.571H210H198.667V224.048ZM221.333 212.571H232.667V201.095V189.619V178.143V166.667H221.333H210H198.667V155.19H187.333V166.667H176V178.143V189.619H187.333V178.143H198.667V189.619V201.095H210H221.333V212.571ZM187.333 155.19V143.714H176H164.667V155.19H176H187.333ZM198.667 155.19H210V143.714V132.238V120.762H221.333V132.238H232.667V143.714H244V132.238V120.762H232.667V109.286H244V97.8095H232.667H221.333V109.286H210V97.8095H198.667V109.286H187.333V120.762H198.667V132.238V143.714V155.19ZM187.333 120.762H176V132.238H187.333V120.762ZM232.667 143.714H221.333V155.19H232.667V143.714ZM74 143.714V132.238H62.6667V143.714H74ZM62.6667 143.714H51.3333H40H28.6667V155.19H40H51.3333H62.6667V143.714ZM17.3333 143.714H6V155.19H17.3333V143.714ZM17.3333 109.286V97.8095H6V109.286H17.3333ZM96.6667 97.8095H108V86.3333V74.8571H96.6667V86.3333V97.8095ZM164.667 6V17.4762V28.9524V40.4286V51.9048V63.381V74.8571V86.3333H176H187.333H198.667H210H221.333H232.667H244V74.8571V63.381V51.9048V40.4286V28.9524V17.4762V6H232.667H221.333H210H198.667H187.333H176H164.667ZM17.3333 17.4762H28.6667H40H51.3333H62.6667H74V28.9524V40.4286V51.9048V63.381V74.8571H62.6667H51.3333H40H28.6667H17.3333V63.381V51.9048V40.4286V28.9524V17.4762ZM176 17.4762H187.333H198.667H210H221.333H232.667V28.9524V40.4286V51.9048V63.381V74.8571H221.333H210H198.667H187.333H176V63.381V51.9048V40.4286V28.9524V17.4762ZM28.6667 28.9524V40.4286V51.9048V63.381H40H51.3333H62.6667V51.9048V40.4286V28.9524H51.3333H40H28.6667ZM187.333 28.9524V40.4286V51.9048V63.381H198.667H210H221.333V51.9048V40.4286V28.9524H210H198.667H187.333ZM164.667 97.8095V109.286H176V97.8095H164.667ZM6 166.667V178.143V189.619V201.095V212.571V224.048V235.524V247H17.3333H28.6667H40H51.3333H62.6667H74H85.3333V235.524V224.048V212.571V201.095V189.619V178.143V166.667H74H62.6667H51.3333H40H28.6667H17.3333H6ZM17.3333 178.143H28.6667H40H51.3333H62.6667H74V189.619V201.095V212.571V224.048V235.524H62.6667H51.3333H40H28.6667H17.3333V224.048V212.571V201.095V189.619V178.143ZM28.6667 189.619V201.095V212.571V224.048H40H51.3333H62.6667V212.571V201.095V189.619H51.3333H40H28.6667ZM232.667 224.048V235.524H244V224.048H232.667Z" fill="#1D1D1D"/>
</g>
</g>
</g>
<defs>
<filter id="filter0_f_18651_395619" x="-1" y="-1" width="252" height="255" filterUnits="userSpaceOnUse" color-interpolation-filters="sRGB">
<feFlood flood-opacity="0" result="BackgroundImageFix"/>
<feBlend mode="normal" in="SourceGraphic" in2="BackgroundImageFix" result="shape"/>
<feGaussianBlur stdDeviation="3.5" result="effect1_foregroundBlur_18651_395619"/>
</filter>
<clipPath id="clip0_18651_395619">
<rect width="250" height="253" rx="4" fill="white"/>
</clipPath>
</defs>
</svg>
