<svg width="26" height="27" viewBox="0 0 26 27" fill="none" xmlns="http://www.w3.org/2000/svg">
<g clip-path="url(#clip0_53838_45092)">
<path d="M22.9935 9.51864H23.156V4.72489C23.156 2.77489 21.6123 1.23114 19.6623 1.23114H6.33728C4.38728 1.23114 2.84353 2.77489 2.84353 4.72489V9.51864C1.62478 9.59989 0.64978 10.5749 0.64978 11.7936V22.2749C0.64978 24.2249 2.19353 25.7686 4.14353 25.7686H21.7748C23.7248 25.7686 25.2685 24.2249 25.2685 22.2749V11.8749C25.3498 10.5749 24.2935 9.51864 22.9935 9.51864Z" fill="#EBEBEB"/>
<path d="M2.84407 9.51865V4.3999C2.84407 2.6124 4.30657 1.1499 6.09407 1.1499H19.9066C21.6941 1.1499 23.1566 2.6124 23.1566 4.3999V9.51865M22.9941 9.51865H22.2628C21.6128 9.51865 21.1253 10.0874 21.1253 10.6562V17.7249C21.1253 19.6749 19.5816 21.2187 17.6316 21.2187H8.45032C6.50032 21.2187 4.95657 19.6749 4.95657 17.7249V10.6562C4.95657 10.0062 4.46907 9.51865 3.81907 9.51865H3.00657C1.70657 9.51865 0.731567 10.5749 0.731567 11.7937V22.5187C0.731567 24.3062 2.19407 25.7686 3.98157 25.7686H22.1003C23.8878 25.7686 25.3503 24.3062 25.3503 22.5187V11.8749C25.3503 10.5749 24.2941 9.51865 22.9941 9.51865Z" stroke="#E6E6E6" stroke-width="1.5" stroke-miterlimit="10"/>
</g>
<defs>
<clipPath id="clip0_53838_45092">
<rect width="26" height="26" fill="white" transform="translate(0 0.5)"/>
</clipPath>
</defs>
</svg>
