<svg width="26" height="26" viewBox="0 0 26 26" fill="none" xmlns="http://www.w3.org/2000/svg">
<g clip-path="url(#clip0_6814_141465)">
<path d="M22.9936 9.01864H23.1561V4.22489C23.1561 2.27489 21.6123 0.73114 19.6623 0.73114H6.33734C4.38734 0.73114 2.84359 2.27489 2.84359 4.22489V9.01864C1.62484 9.09989 0.649841 10.0749 0.649841 11.2936V21.7749C0.649841 23.7249 2.19359 25.2686 4.14359 25.2686H21.7748C23.7248 25.2686 25.2686 23.7249 25.2686 21.7749V11.3749C25.3498 10.0749 24.2936 9.01864 22.9936 9.01864Z" fill="#EBEBEB"/>
<path d="M2.84409 9.01865V3.8999C2.84409 2.1124 4.30659 0.649902 6.09409 0.649902H19.9066C21.6941 0.649902 23.1566 2.1124 23.1566 3.8999V9.01865M22.9941 9.01865H22.2628C21.6128 9.01865 21.1253 9.5874 21.1253 10.1562V17.2249C21.1253 19.1749 19.5816 20.7187 17.6316 20.7187H8.45034C6.50034 20.7187 4.95659 19.1749 4.95659 17.2249V10.1562C4.95659 9.50615 4.46909 9.01865 3.81909 9.01865H3.00659C1.70659 9.01865 0.73159 10.0749 0.73159 11.2937V22.0187C0.73159 23.8062 2.19409 25.2686 3.98159 25.2686H22.1003C23.8878 25.2686 25.3503 23.8062 25.3503 22.0187V11.3749C25.3503 10.0749 24.2941 9.01865 22.9941 9.01865Z" stroke="#FDD5F4" stroke-width="1.5" stroke-miterlimit="10"/>
<path d="M14.3057 8.74727C14.0903 8.21554 13.572 7.86554 12.9999 7.86554C12.4278 7.86554 11.9095 8.21554 11.6941 8.74727L9.63451 13.9232H11.6537V17.9617H14.3461V13.9232H16.3653L14.3057 8.74727Z" fill="#FDD5F4"/>
<path d="M12.9999 7.19243C13.7434 7.19243 14.346 6.58974 14.346 5.84628C14.346 5.10282 13.7434 4.50012 12.9999 4.50012C12.2564 4.50012 11.6537 5.10282 11.6537 5.84628C11.6537 6.58974 12.2564 7.19243 12.9999 7.19243Z" fill="#FDD5F4"/>
</g>
<defs>
<clipPath id="clip0_6814_141465">
<rect width="26" height="26" fill="white"/>
</clipPath>
</defs>
</svg>
