<svg xmlns="http://www.w3.org/2000/svg" version="1.0" width="1220.000000pt" height="1222.000000pt" viewBox="0 0 1220.000000 1222.000000" preserveAspectRatio="xMidYMid meet">

<g transform="translate(0.000000,1222.000000) scale(0.100000,-0.100000)" fill="#212153" stroke="none">
<path d="M5565 12055 c-93 -8 -192 -19 -220 -24 -27 -6 -97 -18 -155 -26 -169 -23 -474 -83 -530 -105 -14 -5 -56 -16 -94 -25 -75 -17 -292 -81 -316 -94 -8 -4 -42 -16 -75 -25 -33 -10 -87 -28 -120 -41 -33 -12 -76 -28 -95 -35 -19 -7 -59 -23 -88 -36 -29 -13 -56 -24 -61 -24 -8 0 -69 -27 -231 -102 -175 -81 -373 -185 -468 -245 -29 -18 -54 -33 -56 -33 -5 0 -187 -112 -231 -143 -22 -15 -71 -48 -110 -74 -38 -26 -74 -51 -80 -55 -5 -4 -37 -28 -70 -52 -33 -24 -71 -54 -85 -65 -14 -11 -65 -52 -115 -90 -125 -96 -427 -369 -493 -446 -9 -11 -60 -63 -112 -117 -52 -53 -129 -136 -170 -184 -41 -48 -80 -92 -85 -98 -6 -6 -19 -23 -30 -37 -11 -15 -67 -88 -125 -164 -58 -75 -110 -144 -116 -153 -77 -112 -204 -311 -204 -319 0 -5 -9 -18 -20 -28 -11 -10 -22 -27 -26 -39 -3 -11 -12 -28 -19 -36 -7 -8 -30 -46 -51 -85 -20 -38 -50 -92 -65 -120 -35 -65 -124 -244 -160 -320 -71 -155 -89 -196 -89 -205 0 -6 -11 -32 -24 -58 -13 -26 -26 -60 -30 -77 -4 -16 -16 -48 -26 -70 -10 -22 -30 -78 -44 -125 -15 -47 -30 -94 -35 -105 -18 -41 -70 -213 -91 -300 -11 -49 -25 -99 -30 -110 -15 -32 -71 -309 -91 -450 -11 -71 -26 -160 -34 -197 -28 -125 -38 -330 -39 -813 -1 -463 9 -691 34 -786 5 -19 21 -107 34 -195 22 -140 53 -292 84 -419 6 -22 20 -78 32 -125 21 -87 85 -299 100 -335 5 -11 20 -58 35 -105 15 -47 33 -98 40 -115 19 -40 85 -211 85 -219 0 -15 189 -411 249 -521 15 -27 41 -76 58 -107 17 -32 41 -70 52 -87 12 -16 21 -32 21 -37 0 -4 15 -30 32 -58 18 -28 38 -59 43 -68 24 -40 188 -281 203 -298 10 -10 49 -62 87 -115 72 -100 122 -164 175 -225 17 -19 56 -64 86 -100 30 -36 71 -82 90 -103 19 -20 34 -41 34 -46 0 -4 11 -13 25 -19 14 -7 31 -23 37 -38 15 -33 71 -94 85 -94 7 0 65 -51 130 -114 161 -155 210 -199 338 -299 61 -48 121 -96 135 -107 38 -31 150 -114 220 -163 53 -38 324 -208 420 -264 138 -81 387 -213 401 -213 4 0 50 -20 101 -44 135 -64 193 -90 278 -121 41 -15 107 -40 146 -56 39 -15 88 -32 110 -38 21 -5 98 -29 169 -54 72 -24 155 -50 185 -57 30 -7 87 -22 125 -32 39 -11 111 -27 160 -37 50 -10 97 -21 105 -25 20 -8 90 -19 470 -76 199 -29 253 -31 765 -27 473 3 726 14 756 33 5 3 71 14 147 24 75 11 169 26 207 34 39 8 113 23 165 34 52 11 127 29 165 39 39 11 93 25 120 32 58 13 416 127 460 146 17 7 48 18 70 26 22 7 63 22 90 35 28 12 69 28 93 35 23 7 47 18 53 26 6 7 18 13 26 13 8 0 58 21 111 46 178 85 277 133 302 148 14 8 59 34 100 57 198 110 230 130 425 259 149 99 208 142 364 262 111 87 181 146 237 199 22 21 45 39 51 39 5 0 21 12 35 28 13 15 74 75 134 133 256 249 403 413 598 669 35 47 75 99 89 115 24 30 198 287 227 336 8 14 32 54 53 90 21 35 43 73 50 84 58 95 75 125 87 155 7 19 19 42 26 50 15 17 81 150 139 280 22 47 45 92 52 101 7 8 13 24 13 35 0 11 4 24 8 30 5 5 21 41 36 79 15 39 32 78 37 87 5 10 9 23 9 29 0 6 7 25 15 43 15 32 60 160 96 276 11 36 24 74 29 85 6 11 24 74 41 140 17 66 38 145 46 175 37 141 61 265 93 465 5 33 16 103 25 155 34 211 45 409 45 832 0 230 -4 464 -10 520 -22 233 -31 305 -42 348 -6 25 -14 72 -19 105 -11 89 -28 178 -50 274 -11 47 -27 118 -35 156 -9 39 -19 79 -24 90 -4 11 -15 54 -25 95 -16 69 -131 426 -160 495 -6 17 -36 91 -65 165 -67 173 -179 410 -286 605 -24 44 -51 96 -61 115 -10 19 -28 48 -40 63 -13 16 -23 33 -23 37 0 5 -13 29 -29 52 -16 24 -72 110 -126 191 -53 82 -109 163 -124 180 -15 18 -35 46 -46 62 -26 42 -186 242 -283 355 -104 121 -397 414 -567 569 -131 119 -355 292 -568 439 -164 113 -275 182 -467 289 -14 8 -52 29 -85 48 -85 48 -388 195 -402 195 -3 0 -29 11 -57 24 -98 46 -362 146 -421 160 -16 4 -43 14 -60 21 -40 18 -220 72 -320 96 -44 10 -93 23 -110 29 -41 13 -297 69 -370 81 -33 6 -105 16 -160 24 -55 8 -125 19 -155 24 -138 26 -255 32 -680 36 -325 2 -504 0 -625 -10z m1000 -224 c17 -5 88 -15 160 -21 71 -6 148 -15 170 -20 39 -9 82 -17 255 -46 47 -8 99 -19 115 -24 17 -5 93 -23 170 -40 77 -18 149 -36 160 -40 11 -5 40 -14 65 -21 76 -19 426 -137 505 -170 11 -4 49 -20 85 -34 157 -63 446 -200 605 -288 44 -25 103 -57 130 -72 179 -97 621 -404 785 -545 36 -30 82 -68 104 -84 57 -42 354 -334 465 -457 120 -133 261 -304 261 -316 0 -6 10 -18 21 -29 12 -10 35 -39 52 -64 17 -25 35 -49 39 -55 40 -50 195 -279 243 -359 17 -28 40 -66 52 -85 24 -39 48 -81 118 -206 85 -153 236 -472 285 -600 26 -67 64 -163 71 -180 11 -27 125 -375 145 -445 25 -90 30 -110 59 -230 14 -63 30 -128 35 -145 15 -50 70 -372 90 -530 32 -250 53 -876 30 -899 -5 -5 -10 -42 -11 -80 -1 -133 -33 -385 -84 -646 -14 -74 -30 -159 -36 -189 -5 -30 -12 -59 -16 -64 -3 -5 -14 -44 -23 -86 -10 -42 -26 -101 -35 -131 -9 -30 -20 -71 -24 -90 -9 -37 -115 -359 -131 -397 -11 -24 -17 -41 -45 -113 -61 -157 -129 -310 -220 -490 -75 -149 -124 -241 -136 -256 -6 -7 -18 -28 -28 -46 -33 -63 -63 -113 -85 -143 -12 -16 -25 -37 -28 -46 -10 -28 -178 -269 -294 -424 -104 -139 -139 -182 -257 -320 -55 -65 -409 -418 -472 -472 -228 -195 -391 -318 -610 -464 -266 -176 -422 -267 -645 -376 -172 -85 -412 -193 -426 -193 -3 0 -20 -6 -37 -14 -100 -45 -583 -206 -617 -206 -11 0 -28 -4 -38 -10 -17 -9 -50 -17 -192 -47 -41 -9 -84 -19 -95 -24 -32 -13 -180 -40 -320 -59 -44 -5 -98 -14 -120 -20 -22 -5 -98 -14 -170 -20 -71 -6 -157 -14 -190 -17 -183 -19 -903 2 -928 27 -5 4 -26 6 -46 3 -22 -3 -48 0 -62 7 -12 7 -52 14 -87 16 -69 3 -186 19 -242 34 -19 5 -69 16 -110 25 -122 27 -361 86 -415 102 -193 60 -525 175 -612 213 -13 6 -33 14 -45 19 -157 65 -411 189 -558 271 -47 27 -103 58 -125 69 -68 36 -56 29 -310 196 -82 55 -179 121 -215 148 -94 70 -220 169 -235 184 -8 7 -17 13 -21 13 -22 0 -501 456 -579 552 -17 20 -57 67 -90 105 -33 38 -72 84 -87 103 -15 19 -49 64 -77 100 -119 154 -301 412 -301 426 0 3 -5 10 -10 17 -16 18 -56 82 -83 129 -14 24 -43 75 -65 113 -92 158 -114 201 -253 490 -21 44 -54 121 -74 170 -21 50 -43 104 -50 120 -39 93 -151 429 -195 585 -69 248 -140 580 -140 660 0 17 -4 38 -9 48 -6 9 -15 60 -21 112 -6 52 -16 127 -20 165 -5 39 -12 223 -15 410 -5 266 -3 377 9 510 23 252 35 348 46 367 6 10 10 32 10 50 1 75 65 384 133 638 47 175 206 633 266 765 114 250 243 507 321 638 19 33 46 78 59 100 60 106 235 362 346 509 190 250 268 339 496 567 195 195 313 301 440 398 41 32 89 68 105 81 163 127 456 323 624 417 180 101 352 190 455 236 28 12 86 39 130 59 44 21 123 54 175 75 52 20 115 45 140 55 25 9 90 32 145 49 55 18 109 36 120 41 43 18 181 59 310 91 206 51 331 79 382 85 26 3 59 10 73 15 14 5 57 13 95 18 39 6 97 15 130 20 33 6 110 16 170 22 61 6 146 14 190 19 111 11 783 4 820 -9z" fill="#212153"/>
<path d="M5885 11438 c-6 -21 -84 -186 -134 -285 -44 -88 -55 -125 -45 -161 5 -20 6 -55 2 -77 -4 -26 -2 -54 7 -80 8 -22 19 -112 24 -200 5 -88 13 -176 18 -195 l9 -35 147 -3 c90 -1 155 2 167 8 14 7 26 8 39 0 14 -7 22 -7 26 1 4 6 7 156 7 334 l0 323 -36 59 c-20 32 -36 61 -36 65 0 4 -22 48 -50 98 -27 50 -52 101 -56 113 -17 56 -76 79 -89 35z" fill="#212153"/>
<path d="M6451 11358 c-35 -57 -71 -114 -80 -127 -19 -28 -18 -27 -66 -111 l-38 -65 -4 -311 c-3 -266 -1 -313 12 -324 16 -13 336 -34 346 -22 12 15 29 91 29 134 0 24 6 85 14 134 8 49 20 143 26 209 7 66 13 125 15 132 2 6 -10 51 -26 100 -17 48 -37 107 -44 131 -8 24 -23 56 -35 72 -11 15 -20 38 -20 49 0 30 -42 101 -60 101 -3 0 -35 -46 -69 -102z" fill="#212153"/>
<path d="M5276 11378 c-9 -12 -16 -30 -16 -40 0 -9 -4 -20 -10 -23 -5 -3 -10 -21 -10 -39 0 -18 -7 -41 -15 -52 -8 -10 -15 -30 -15 -44 0 -15 -4 -30 -8 -35 -4 -6 -14 -28 -21 -50 -7 -22 -24 -63 -38 -91 l-26 -51 18 -64 c16 -60 41 -159 65 -257 5 -23 10 -62 10 -85 0 -24 6 -49 13 -55 6 -7 17 -45 22 -85 l10 -72 47 -3 c26 -2 57 2 69 9 12 6 58 15 103 20 149 17 165 21 181 39 15 16 15 24 5 57 -7 21 -18 48 -26 60 -9 15 -15 76 -19 205 -8 274 -9 279 -85 384 -35 49 -72 98 -82 108 -10 11 -18 25 -18 32 0 7 -6 17 -14 21 -7 4 -20 22 -29 39 -23 44 -66 94 -82 94 -8 0 -21 -10 -29 -22z" fill="#212153"/>
<path d="M7078 11338 c-18 -24 -41 -54 -50 -68 -9 -14 -44 -56 -78 -95 -33 -38 -76 -92 -94 -120 -32 -47 -34 -58 -46 -190 -6 -77 -14 -144 -18 -149 -3 -5 -11 -68 -18 -140 -6 -72 -15 -143 -19 -158 -6 -24 -3 -29 27 -41 18 -8 60 -17 92 -21 33 -3 64 -10 70 -15 6 -5 31 -11 56 -15 25 -3 64 -8 87 -12 39 -5 43 -4 47 17 2 13 12 62 21 109 9 47 21 105 25 130 14 72 22 104 30 115 4 6 10 33 14 60 3 28 15 74 26 103 21 54 19 93 -5 122 -7 8 -18 48 -24 88 -6 39 -18 89 -25 110 -8 20 -19 60 -25 87 -12 60 -38 125 -50 125 -5 0 -24 -19 -43 -42z" fill="#212153"/>
<path d="M4674 11262 c-18 -11 -44 -115 -44 -174 0 -30 -4 -58 -8 -63 -9 -11 -22 -54 -48 -163 -13 -52 -15 -78 -8 -90 20 -33 41 -77 54 -112 7 -19 18 -53 26 -75 8 -22 19 -48 24 -57 6 -10 10 -30 10 -45 1 -16 7 -39 15 -53 8 -14 14 -35 15 -48 0 -13 9 -41 19 -63 11 -22 22 -53 26 -69 12 -54 44 -60 135 -26 62 23 106 36 126 36 24 0 124 36 138 50 7 7 6 25 -3 58 -8 26 -18 65 -23 87 -6 22 -17 56 -25 75 -8 19 -17 60 -19 90 -5 52 -17 106 -50 211 -8 26 -14 54 -14 63 0 22 -40 76 -57 76 -7 0 -24 18 -38 40 -14 22 -29 40 -33 40 -4 0 -25 23 -47 52 -46 60 -145 168 -154 168 -3 0 -11 -4 -17 -8z" fill="#212153"/>
<path d="M7629 11169 c-33 -35 -63 -67 -67 -72 -4 -4 -20 -20 -37 -36 -44 -43 -139 -143 -154 -164 -14 -18 -44 -144 -61 -252 -5 -33 -16 -78 -24 -100 -8 -22 -15 -50 -16 -61 0 -12 -7 -41 -16 -65 -43 -118 -38 -142 33 -158 27 -5 97 -26 156 -45 60 -20 117 -36 128 -36 22 0 42 39 55 105 8 44 61 184 75 199 5 6 9 22 9 37 0 15 9 49 21 76 46 107 52 135 45 213 -10 106 -22 189 -35 235 -6 22 -11 65 -11 96 0 43 -5 60 -20 74 -20 18 -22 18 -81 -46z" fill="#212153"/>
<path d="M4085 11068 c-23 -70 -36 -136 -32 -165 4 -20 -1 -54 -10 -81 -12 -37 -13 -53 -4 -78 9 -25 8 -38 -4 -67 -27 -64 -23 -80 52 -212 7 -11 27 -54 46 -95 19 -41 58 -123 86 -182 28 -59 51 -113 51 -120 0 -7 9 -24 20 -38 l19 -25 43 22 c64 32 126 58 231 94 17 7 42 15 54 20 38 14 39 61 4 119 -5 8 -18 47 -29 85 -11 39 -34 108 -52 155 -17 47 -38 107 -45 134 -8 26 -21 56 -29 65 -9 10 -16 26 -16 37 0 26 -9 36 -53 63 -20 12 -43 30 -50 39 -6 10 -29 30 -50 45 -20 16 -57 47 -80 70 -111 109 -145 135 -152 115z" fill="#212153"/>
<path d="M8197 10992 c-17 -15 -50 -41 -72 -57 -22 -15 -63 -50 -90 -77 -28 -27 -64 -57 -81 -67 -42 -26 -66 -63 -94 -146 -13 -38 -27 -74 -31 -80 -4 -5 -10 -28 -14 -50 -4 -22 -15 -54 -25 -71 -10 -17 -21 -45 -25 -62 -3 -17 -15 -49 -26 -71 -10 -22 -19 -46 -19 -53 0 -8 -6 -22 -13 -33 -36 -52 -23 -93 35 -115 99 -38 184 -73 194 -81 6 -5 31 -12 56 -15 l44 -6 48 98 c27 55 61 128 78 164 46 101 99 203 116 223 12 14 15 44 13 153 -1 74 -7 146 -13 159 -8 19 -8 32 0 50 17 37 15 89 -5 124 -25 42 -38 45 -76 13z" fill="#212153"/>
<path d="M3505 10800 c-4 -6 -1 -41 5 -78 7 -37 9 -92 6 -122 -4 -30 -9 -96 -12 -146 -7 -105 -10 -97 97 -266 38 -60 69 -113 69 -118 0 -4 6 -12 13 -18 7 -6 46 -65 87 -132 41 -66 82 -123 93 -126 11 -3 44 11 90 39 93 58 205 117 222 117 15 0 25 22 25 54 0 24 -67 169 -81 174 -9 4 -62 114 -144 298 -21 47 -36 67 -65 83 -20 11 -62 40 -93 63 -30 24 -65 50 -77 58 -12 8 -32 22 -44 31 -11 9 -41 26 -66 39 -25 13 -56 31 -69 41 -27 21 -47 24 -56 9z" fill="#212153"/>
<path d="M8722 10727 c-18 -12 -55 -37 -82 -54 -27 -18 -53 -33 -58 -33 -5 0 -17 -9 -28 -21 -18 -20 -48 -39 -131 -82 -18 -9 -39 -30 -45 -45 -31 -77 -80 -184 -97 -212 -5 -8 -35 -67 -66 -130 -31 -63 -67 -132 -79 -152 -16 -29 -18 -42 -10 -55 12 -19 130 -95 192 -123 24 -11 58 -31 76 -45 18 -14 38 -25 44 -25 15 0 54 54 87 120 15 30 33 62 40 70 7 8 26 40 41 70 16 30 60 98 99 151 l71 96 2 144 c2 79 6 178 10 220 12 124 -2 147 -66 106z" fill="#212153"/>
<path d="M2957 10463 c-9 -14 -4 -148 5 -160 5 -6 10 -31 12 -55 1 -23 7 -52 13 -63 6 -11 13 -54 16 -96 8 -92 15 -113 59 -161 18 -20 52 -61 75 -90 24 -29 57 -71 75 -94 18 -22 47 -58 63 -79 17 -21 54 -66 83 -99 28 -33 52 -64 52 -68 0 -13 30 -9 44 5 18 17 142 108 181 132 75 47 105 71 111 88 6 18 -46 106 -85 145 -8 8 -22 27 -30 42 -54 98 -98 168 -118 190 -13 14 -35 49 -50 78 -28 58 -81 102 -122 102 -14 0 -36 11 -50 23 -15 13 -42 30 -61 38 -19 7 -61 28 -92 45 -31 18 -67 36 -80 40 -13 4 -34 15 -47 25 -25 20 -47 24 -54 12z" fill="#212153"/>
<path d="M9210 10395 c-84 -46 -293 -145 -305 -145 -18 0 -60 -50 -101 -120 -20 -36 -57 -95 -81 -132 -23 -37 -43 -69 -43 -72 0 -5 -43 -66 -122 -174 -40 -54 -36 -67 30 -109 31 -20 96 -69 145 -110 96 -81 99 -82 150 -21 27 33 86 112 129 176 13 19 67 85 121 149 91 109 97 118 98 162 1 56 21 177 32 187 4 4 7 27 7 50 0 23 4 53 9 66 4 13 11 44 15 71 7 45 6 47 -16 47 -13 0 -43 -12 -68 -25z" fill="#212153"/>
<path d="M6189 10199 c-8 -5 -82 -9 -165 -9 -110 0 -163 -4 -195 -15 -31 -11 -51 -13 -71 -6 -16 6 -38 6 -55 1 -40 -13 -178 -33 -244 -36 -31 -1 -66 -7 -77 -13 -12 -6 -35 -11 -52 -11 -17 0 -43 -6 -58 -14 -15 -7 -52 -16 -82 -20 -30 -3 -91 -17 -135 -30 -44 -13 -129 -38 -190 -56 -60 -17 -126 -36 -145 -42 -32 -10 -78 -29 -185 -78 -22 -10 -51 -22 -65 -25 -56 -16 -317 -142 -353 -172 -16 -13 -33 -23 -38 -23 -6 0 -59 -31 -120 -70 -60 -38 -112 -70 -115 -70 -8 0 -177 -118 -204 -143 -14 -12 -48 -41 -76 -62 -144 -112 -213 -174 -363 -325 -90 -91 -188 -196 -219 -235 -31 -38 -69 -86 -86 -106 -78 -91 -183 -236 -211 -288 -7 -15 -31 -50 -52 -77 -22 -27 -58 -87 -82 -134 -24 -47 -51 -96 -61 -110 -10 -14 -31 -52 -46 -85 -16 -33 -33 -65 -40 -72 -6 -6 -17 -26 -24 -45 -6 -18 -27 -64 -44 -103 -56 -121 -66 -145 -66 -164 0 -10 -3 -21 -6 -24 -10 -10 -53 -117 -65 -162 -6 -22 -16 -53 -23 -70 -31 -72 -76 -242 -88 -330 -5 -38 -14 -78 -20 -88 -5 -10 -16 -67 -23 -127 -8 -59 -19 -120 -25 -134 -5 -15 -10 -53 -10 -85 0 -33 -7 -72 -16 -90 -13 -26 -14 -40 -4 -80 9 -40 9 -54 -6 -89 -13 -34 -15 -63 -10 -155 3 -61 6 -116 7 -122 1 -5 -2 -60 -6 -122 -7 -93 -5 -118 9 -153 14 -34 15 -49 6 -76 -9 -26 -9 -42 1 -67 6 -18 16 -61 20 -97 4 -36 15 -101 24 -145 10 -44 17 -89 16 -100 0 -11 6 -42 13 -70 15 -55 28 -108 52 -205 9 -36 22 -80 30 -98 8 -18 14 -45 14 -60 0 -15 9 -42 20 -60 11 -18 20 -41 20 -52 0 -20 14 -55 56 -146 13 -28 24 -59 24 -69 0 -9 12 -40 26 -69 55 -105 64 -125 64 -139 0 -8 11 -31 25 -51 14 -20 25 -41 25 -47 0 -5 10 -26 23 -47 42 -70 47 -77 60 -107 18 -38 128 -210 161 -251 14 -18 26 -35 26 -39 0 -12 187 -254 288 -373 108 -127 447 -440 589 -545 21 -15 79 -58 128 -94 50 -36 111 -77 137 -90 26 -13 50 -28 53 -33 3 -5 18 -15 33 -23 15 -8 61 -34 102 -57 109 -62 232 -126 260 -135 13 -4 45 -21 71 -36 25 -16 52 -29 58 -29 7 0 38 -12 69 -26 133 -60 183 -80 237 -94 28 -7 54 -17 60 -21 5 -5 19 -9 32 -9 12 0 48 -11 79 -25 31 -14 69 -25 85 -25 15 0 31 -4 34 -10 3 -6 21 -10 39 -10 17 0 36 -4 41 -9 6 -4 62 -18 125 -30 63 -11 140 -26 170 -32 30 -6 109 -15 175 -21 66 -5 127 -13 135 -17 25 -13 753 -4 885 11 66 7 125 17 132 21 6 4 49 12 95 17 82 10 134 21 193 42 17 6 50 14 75 18 65 11 156 38 190 55 16 8 36 15 45 15 8 0 57 16 108 35 50 20 117 45 147 57 51 19 244 108 315 145 17 8 53 27 80 41 28 14 62 34 77 44 14 10 31 18 37 18 7 0 24 8 39 19 22 15 128 82 200 126 16 10 142 95 222 151 175 121 609 536 735 705 11 14 40 52 65 84 64 82 195 271 228 328 15 26 41 69 59 95 17 26 59 101 92 167 34 66 68 131 76 145 8 14 21 41 30 60 8 19 19 42 24 50 5 8 28 65 51 125 22 61 45 118 50 127 6 10 10 27 10 37 0 11 11 41 25 67 14 26 25 60 25 75 0 15 4 30 9 33 5 3 11 16 14 28 20 82 38 155 60 238 13 52 28 115 31 140 4 25 11 54 15 65 9 21 31 200 31 250 0 17 6 39 14 50 15 22 17 69 17 505 0 394 0 412 -14 428 -6 8 -13 38 -14 66 -4 65 -23 195 -33 221 -4 11 -12 47 -18 80 -21 130 -45 231 -58 250 -8 11 -14 30 -14 42 0 13 -16 70 -35 127 -19 58 -35 110 -35 115 0 6 -11 34 -24 63 -13 29 -35 83 -50 120 -39 100 -182 388 -218 440 -10 14 -18 29 -18 32 0 3 -11 22 -25 43 -40 60 -42 63 -96 153 -28 47 -54 87 -58 90 -8 5 -90 113 -106 139 -12 19 -107 134 -173 209 -69 79 -297 308 -378 378 -159 140 -317 264 -337 264 -5 0 -37 22 -71 48 -59 47 -100 75 -141 98 -11 6 -47 26 -80 44 -33 18 -72 41 -87 52 -14 10 -30 18 -36 18 -5 0 -20 8 -33 18 -13 11 -37 22 -54 26 -16 4 -32 11 -35 14 -5 7 -37 23 -195 98 -100 47 -303 118 -415 145 -47 12 -97 27 -111 34 -24 13 -121 37 -204 50 -22 3 -53 10 -70 15 -87 25 -123 34 -155 35 -51 3 -209 25 -250 35 -19 5 -95 12 -168 15 -73 3 -143 10 -156 15 -13 5 -29 4 -37 -1z m369 -396 c51 -38 37 -103 -23 -103 -46 0 -59 -26 -62 -115 -4 -137 -10 -212 -18 -226 -10 -15 -18 -138 -16 -231 2 -64 -8 -90 -44 -114 -21 -13 -28 -14 -66 -1 l-42 14 -3 84 c-1 46 -3 89 -3 94 0 6 2 67 5 137 l6 128 -24 9 c-14 5 -59 5 -112 0 -48 -5 -92 -6 -97 -3 -18 10 -109 -8 -131 -26 l-23 -18 19 -53 c24 -67 55 -113 140 -207 36 -40 66 -81 66 -91 0 -11 -14 -28 -33 -39 -40 -23 -52 -19 -118 43 -103 96 -209 238 -209 282 0 10 -7 27 -15 37 -13 17 -12 22 5 46 11 16 20 33 20 40 0 24 42 64 93 87 49 23 59 24 152 18 106 -8 107 -8 200 1 71 7 82 14 83 53 1 55 -6 56 -302 55 -156 -1 -282 -5 -296 -11 -16 -7 -33 -7 -45 -1 -15 7 -34 3 -69 -12 -53 -22 -51 -11 -26 -125 6 -27 15 -79 21 -115 6 -36 14 -69 18 -75 5 -5 12 -37 15 -70 4 -33 14 -87 23 -120 8 -33 16 -96 16 -140 l2 -79 -50 -9 c-59 -10 -95 5 -95 40 0 27 -16 97 -40 173 -10 30 -21 75 -25 100 -4 25 -12 54 -18 65 -6 11 -14 38 -18 60 -4 22 -13 58 -19 80 -6 22 -15 61 -19 87 -13 85 -42 94 -166 55 -47 -15 -71 -29 -73 -40 -2 -9 13 -60 34 -113 35 -92 36 -97 21 -127 -23 -49 -85 -115 -110 -119 -33 -5 -36 -45 -3 -58 14 -5 49 -28 78 -51 29 -23 64 -45 77 -51 38 -14 121 -70 121 -82 0 -15 -62 -76 -78 -76 -15 0 -72 32 -242 134 -36 22 -74 47 -85 57 -11 10 -41 29 -65 42 -141 76 -190 110 -190 135 0 22 60 82 81 82 10 0 30 -11 45 -25 15 -14 36 -25 48 -26 12 0 42 -2 68 -4 66 -4 83 16 74 87 -4 29 -13 60 -20 68 -8 8 -18 29 -23 45 -9 28 -13 30 -55 28 -25 0 -56 -8 -69 -16 -13 -8 -51 -23 -84 -32 -33 -9 -78 -27 -100 -40 -22 -13 -58 -27 -80 -31 -54 -10 -104 -41 -111 -70 -7 -26 34 -122 61 -144 9 -7 24 -31 35 -54 11 -22 31 -59 45 -81 14 -22 29 -49 34 -61 5 -12 25 -45 43 -75 19 -30 43 -72 53 -94 11 -22 28 -48 38 -59 27 -31 22 -69 -13 -94 -41 -30 -75 -28 -97 6 -10 15 -30 43 -46 63 -15 20 -36 50 -45 67 -62 112 -136 212 -157 212 -7 0 -18 -7 -25 -15 -7 -8 -21 -15 -30 -15 -10 0 -28 -12 -40 -27 l-21 -27 61 -59 c70 -66 99 -122 100 -187 0 -54 -32 -110 -87 -152 -32 -24 -45 -28 -105 -28 -38 0 -79 -5 -90 -11 -14 -7 -28 -8 -42 -1 -36 16 -92 32 -113 32 -11 0 -42 12 -69 26 -27 15 -60 33 -74 40 -14 8 -31 14 -38 14 -7 0 -30 9 -51 20 -57 28 -64 86 -19 137 17 18 24 20 48 12 15 -6 36 -19 46 -30 9 -10 23 -19 30 -19 7 0 33 -13 57 -29 53 -36 213 -91 266 -91 42 0 86 27 96 61 10 31 -33 109 -69 125 -17 8 -49 28 -72 45 -24 18 -59 33 -83 36 -24 3 -45 12 -48 19 -8 21 17 55 53 70 18 8 65 34 103 59 38 25 75 45 83 45 7 0 29 14 48 30 30 25 33 31 22 47 -7 10 -26 39 -43 65 -22 35 -35 45 -47 41 -9 -4 -19 -10 -22 -13 -6 -8 -47 -31 -107 -59 -24 -11 -43 -25 -43 -31 0 -5 -6 -10 -13 -10 -8 0 -27 -11 -42 -24 -16 -14 -45 -33 -64 -43 -20 -10 -58 -36 -86 -59 -27 -22 -63 -49 -80 -59 -16 -11 -57 -43 -89 -73 -32 -30 -66 -57 -75 -60 -32 -13 -151 -150 -145 -166 3 -9 10 -16 14 -16 14 0 138 -97 226 -177 45 -40 86 -73 91 -73 5 0 21 -12 35 -27 14 -16 47 -44 72 -63 26 -19 57 -45 69 -57 11 -13 28 -23 36 -23 24 0 81 -23 123 -49 40 -24 91 -103 103 -158 6 -32 -5 -84 -28 -132 -11 -22 -65 -67 -152 -127 -31 -20 -145 -54 -186 -54 -27 0 -89 61 -89 88 0 25 18 32 78 32 55 0 99 15 162 52 93 55 118 133 59 182 -19 17 -43 26 -64 26 -28 0 -40 -8 -75 -50 -45 -53 -70 -62 -102 -33 -20 18 -26 97 -8 108 6 3 10 17 10 30 0 22 -22 45 -85 90 -15 11 -53 41 -84 66 -31 25 -61 48 -67 50 -11 4 -44 30 -137 109 -112 94 -137 99 -190 41 -60 -66 -71 -89 -59 -115 5 -12 36 -40 69 -61 32 -20 69 -46 83 -56 14 -10 48 -32 75 -48 54 -32 135 -103 135 -119 0 -25 -43 -62 -72 -62 -17 0 -39 -7 -49 -15 -12 -12 -43 -16 -125 -18 l-109 -2 -3 28 c-2 16 5 38 17 53 12 15 21 34 21 44 0 31 -151 116 -184 104 -8 -3 -40 -46 -71 -94 -50 -79 -70 -100 -95 -100 -12 0 -70 62 -70 76 0 7 16 28 35 47 19 19 35 38 35 41 0 16 97 152 168 236 236 279 422 468 533 542 24 16 50 36 56 45 7 9 42 37 77 62 36 25 93 67 128 92 35 25 88 59 118 76 30 16 75 42 100 57 55 32 445 226 456 226 4 0 26 9 48 19 23 10 79 32 126 47 47 16 96 34 110 41 14 7 36 13 50 13 14 0 36 7 49 16 13 9 51 20 85 24 33 4 87 18 119 30 32 12 61 19 64 16 3 -3 18 1 32 9 15 7 54 15 87 16 32 2 70 8 84 15 14 6 66 17 115 23 50 6 108 13 130 17 123 18 232 22 523 19 305 -2 325 -3 350 -22z m814 -147 c18 -7 76 -32 128 -55 52 -23 103 -41 113 -41 11 0 31 -6 45 -13 32 -16 119 -56 147 -67 109 -45 365 -183 434 -234 19 -14 38 -26 42 -26 4 0 40 -22 81 -50 40 -27 84 -57 98 -67 14 -9 50 -37 80 -63 30 -25 66 -53 80 -62 77 -49 432 -407 528 -533 25 -33 67 -85 92 -115 63 -75 239 -353 240 -379 1 -52 -96 -71 -126 -26 -9 14 -23 25 -30 25 -8 0 -46 -18 -85 -40 -39 -22 -74 -40 -78 -40 -5 0 -18 -9 -31 -20 -13 -11 -34 -20 -48 -20 -14 0 -33 -6 -41 -14 -23 -20 -252 -136 -271 -136 -8 0 -26 -9 -40 -20 -14 -11 -32 -20 -41 -20 -22 0 -79 54 -79 74 0 23 42 60 96 87 51 24 55 42 17 63 -48 25 -110 98 -127 150 -25 78 -21 150 14 224 17 35 39 75 50 89 11 14 20 33 20 41 0 19 -29 52 -46 52 -7 0 -41 -29 -76 -64 -55 -55 -70 -65 -117 -75 -111 -23 -192 16 -250 122 -19 33 -21 54 -21 180 0 79 4 147 9 153 5 5 16 34 24 64 13 44 22 58 49 73 35 18 82 12 114 -14 20 -16 17 -53 -5 -73 -10 -10 -21 -32 -24 -49 -3 -18 -13 -52 -22 -77 -10 -25 -20 -77 -22 -115 -5 -66 -3 -73 22 -103 63 -75 167 -10 202 126 17 64 28 82 52 82 14 0 203 -191 240 -242 11 -17 10 -22 -8 -42 -37 -40 -27 -63 40 -86 32 -12 41 -11 83 10 47 24 86 74 86 111 0 27 -41 81 -110 147 -30 29 -59 58 -65 64 -94 99 -277 270 -336 313 -41 31 -99 76 -149 116 -70 57 -119 82 -136 68 -26 -22 -222 -283 -328 -439 -25 -36 -58 -78 -75 -94 l-31 -30 -38 21 c-65 38 -67 62 -10 147 18 27 39 61 47 75 7 14 24 38 38 52 13 14 43 55 66 91 23 36 70 107 104 159 35 52 63 104 63 116 0 16 -19 32 -80 67 -43 25 -86 46 -94 46 -14 0 -66 -65 -66 -82 0 -21 -74 -119 -103 -137 -38 -23 -96 -27 -147 -9 -29 9 -35 9 -47 -7 -15 -22 -17 -77 -3 -91 11 -11 60 -194 60 -224 0 -24 -5 -26 -62 -35 -40 -6 -49 -4 -64 14 -21 24 -44 93 -44 132 0 15 -7 43 -15 62 -8 20 -15 50 -15 67 0 17 -7 41 -15 54 -9 13 -19 57 -24 98 -5 41 -13 83 -18 94 -6 10 -13 38 -17 61 -5 37 -3 44 16 57 13 8 42 18 65 22 40 6 43 5 54 -22 57 -141 76 -163 135 -164 24 0 69 45 79 80 4 14 14 33 22 42 8 9 16 31 16 50 2 30 -1 34 -38 45 -22 7 -49 17 -60 23 -36 17 -149 57 -223 80 -87 27 -99 43 -76 100 18 44 33 49 86 26z m-1062 -1050 c141 -15 247 -31 315 -46 197 -45 190 -43 328 -90 112 -38 224 -84 306 -128 36 -19 93 -48 125 -65 33 -17 93 -57 135 -89 42 -32 121 -90 177 -128 107 -74 308 -270 418 -408 136 -172 274 -405 359 -607 59 -141 135 -401 158 -540 41 -253 29 -832 -19 -922 -7 -12 -12 -38 -12 -58 0 -20 -16 -83 -35 -141 -19 -57 -35 -110 -35 -117 0 -17 -59 -168 -81 -207 -4 -8 -27 -53 -50 -100 -53 -108 -49 -101 -106 -194 -26 -43 -55 -91 -63 -105 -40 -70 -169 -230 -274 -340 -34 -35 -68 -71 -77 -80 -17 -18 -110 -100 -182 -161 -44 -37 -77 -61 -202 -147 -22 -16 -58 -38 -80 -49 -22 -12 -66 -36 -97 -53 -102 -56 -196 -101 -210 -101 -8 0 -18 -4 -24 -9 -15 -15 -286 -104 -339 -111 -27 -5 -75 -15 -105 -24 -30 -9 -73 -16 -95 -16 -22 0 -62 -7 -90 -16 -67 -20 -612 -18 -672 2 -21 8 -56 14 -78 14 -141 0 -484 108 -716 225 -162 82 -405 240 -494 322 -11 10 -53 47 -93 83 -64 56 -120 116 -246 260 -51 58 -192 263 -231 335 -21 39 -48 89 -61 112 -111 203 -214 528 -258 818 -43 287 -43 410 5 720 14 89 57 275 70 297 5 10 9 28 9 40 1 13 7 34 15 48 8 14 14 35 15 46 0 37 134 343 183 418 46 73 77 126 77 134 0 5 11 19 25 32 14 13 25 29 25 37 0 7 4 13 8 13 5 0 13 10 19 23 33 72 301 368 418 462 28 22 60 49 72 60 20 19 170 125 211 150 9 6 30 19 47 30 16 11 39 25 50 31 111 60 168 89 228 115 40 17 90 40 111 50 22 11 48 19 59 19 10 0 31 7 45 15 39 21 150 55 202 61 25 3 54 9 65 14 11 5 34 11 50 14 17 3 66 12 110 21 101 20 289 42 380 44 39 0 131 -5 205 -13z m-3402 -993 c5 -16 17 -59 26 -98 9 -38 21 -83 25 -100 5 -16 12 -47 16 -68 7 -45 24 -54 73 -39 149 45 292 72 292 56 0 -5 -57 -63 -127 -130 l-127 -121 23 -29 c12 -16 59 -68 103 -117 96 -105 98 -125 11 -98 -32 11 -100 26 -152 36 -91 16 -95 16 -108 -1 -7 -10 -13 -24 -13 -31 0 -15 -43 -152 -70 -223 -18 -50 -45 -64 -53 -28 -2 13 -12 48 -20 78 -9 30 -25 88 -35 129 -11 40 -24 77 -29 82 -9 9 -58 2 -202 -31 -148 -34 -147 -13 9 131 55 51 99 98 98 105 -2 7 -49 62 -105 122 -57 61 -103 118 -103 127 0 23 44 16 189 -31 61 -20 118 -34 126 -30 8 3 17 18 20 33 4 15 10 37 15 48 4 11 22 64 39 118 46 145 59 163 79 110z m6521 -166 c5 -13 17 -55 26 -93 41 -172 41 -172 120 -154 22 4 74 15 115 23 41 9 82 19 91 22 10 4 19 0 23 -10 4 -11 -22 -45 -84 -111 -50 -53 -95 -104 -100 -115 -8 -15 5 -35 80 -118 49 -56 90 -106 90 -111 0 -27 -47 -22 -216 21 -50 13 -84 9 -95 -11 -4 -8 -19 -55 -34 -105 -47 -164 -74 -196 -95 -112 -5 23 -15 56 -20 73 -6 17 -10 36 -10 43 0 7 -7 38 -16 68 l-16 55 -51 -5 c-49 -5 -171 -27 -228 -42 -36 -9 -46 18 -16 46 64 60 187 185 187 191 0 4 -40 52 -90 107 -49 56 -90 105 -90 110 0 22 27 21 149 -5 71 -15 136 -24 144 -21 7 3 24 38 36 79 13 40 27 81 32 90 5 10 9 25 9 33 0 22 29 75 41 75 5 0 13 -10 18 -23z m-6329 -1407 c17 -17 20 -35 22 -127 1 -60 0 -125 -1 -146 -1 -21 4 -53 12 -70 8 -18 18 -68 22 -112 6 -77 10 -95 40 -215 7 -30 21 -84 30 -120 18 -75 45 -151 57 -165 4 -5 8 -19 8 -30 0 -12 9 -39 19 -61 11 -22 23 -54 27 -70 4 -16 15 -40 24 -54 9 -14 20 -37 23 -51 11 -44 32 -42 69 6 51 67 90 85 188 85 81 0 82 0 116 -36 42 -45 45 -84 8 -109 -28 -18 -40 -13 -77 33 -38 46 -137 22 -203 -50 -39 -44 -40 -67 -3 -119 26 -37 24 -53 -12 -83 -37 -31 -44 -32 -92 -6 l-37 20 -106 -60 c-58 -33 -110 -60 -116 -60 -5 0 -21 -9 -35 -20 -14 -11 -33 -20 -43 -20 -9 0 -25 -9 -35 -20 -10 -11 -22 -20 -27 -20 -5 0 -34 -16 -64 -35 -30 -19 -60 -35 -68 -35 -7 0 -21 -9 -30 -19 -10 -11 -32 -23 -48 -26 -24 -6 -35 -2 -58 20 -40 38 -48 90 -19 121 12 13 28 24 35 24 11 0 166 68 209 92 11 7 96 49 188 95 92 46 170 89 173 96 2 7 -8 38 -24 68 -31 60 -56 72 -97 45 -13 -8 -45 -21 -72 -27 -26 -7 -57 -18 -68 -26 -11 -7 -27 -13 -36 -13 -9 0 -22 -7 -29 -15 -7 -8 -21 -15 -32 -15 -11 0 -42 -10 -69 -21 -48 -21 -50 -21 -69 -4 -21 19 -28 79 -10 90 6 3 10 13 10 22 0 30 73 164 98 181 30 19 48 10 75 -39 10 -19 22 -37 26 -41 7 -8 55 7 134 41 54 23 58 40 27 110 -11 24 -20 52 -20 63 0 10 -11 30 -25 44 -27 27 -41 26 -125 -6 -94 -35 -206 -70 -227 -70 -12 0 -24 -4 -27 -9 -3 -4 -20 -11 -38 -15 -50 -10 -169 -45 -207 -62 -18 -8 -41 -12 -51 -9 -20 6 -50 67 -53 110 -2 34 27 53 103 67 95 18 106 21 127 35 12 8 26 12 32 9 5 -4 65 8 133 25 68 17 141 34 163 39 22 4 58 14 80 23 l40 14 -2 54 c-3 58 -23 90 -45 72 -7 -6 -35 -14 -63 -18 -108 -16 -152 -24 -200 -35 -27 -7 -60 -12 -72 -11 -12 0 -25 -4 -28 -9 -3 -6 -18 -10 -32 -10 -26 0 -100 -17 -197 -46 -43 -13 -52 -12 -72 1 -25 16 -35 42 -37 97 -2 26 3 35 27 46 44 22 135 41 193 42 67 0 133 26 133 50 0 11 -4 22 -10 25 -5 3 -10 33 -10 66 0 83 -12 103 -57 94 -40 -7 -88 9 -97 32 -8 20 9 49 68 112 68 72 121 110 146 104 11 -3 27 -23 37 -44 10 -21 23 -40 30 -43 7 -3 38 -1 70 4 32 6 77 10 101 10 l42 0 0 64 c0 74 14 96 61 96 16 0 38 -9 49 -20z m6140 -102 c5 -7 19 -25 30 -39 19 -26 22 -26 187 -33 92 -4 235 -9 317 -12 122 -3 152 -6 167 -20 23 -21 24 -37 4 -54 -8 -7 -15 -26 -15 -42 0 -16 -6 -31 -15 -34 -19 -7 -98 -8 -210 -1 -108 6 -125 -3 -125 -69 0 -24 -5 -54 -11 -68 -16 -34 10 -76 47 -76 27 0 74 -40 74 -64 0 -9 -10 -21 -22 -27 -13 -7 -40 -27 -61 -44 -43 -37 -146 -78 -171 -69 -9 3 -18 17 -21 30 -3 13 -7 35 -10 48 -6 29 -68 49 -157 50 l-61 1 -14 -50 c-8 -27 -19 -54 -24 -59 -26 -28 17 -76 68 -76 10 0 50 -12 88 -25 39 -14 84 -25 102 -25 18 0 54 -8 80 -19 26 -10 68 -22 93 -25 25 -4 69 -17 98 -28 29 -11 55 -18 58 -15 13 13 64 -16 70 -39 7 -27 -27 -108 -48 -117 -8 -2 -32 2 -53 10 -49 17 -115 38 -175 54 -25 7 -72 22 -105 35 -33 12 -96 32 -140 44 -44 11 -94 27 -112 35 -45 21 -51 19 -70 -22 -9 -21 -23 -52 -31 -70 -15 -30 -15 -33 3 -52 10 -12 24 -21 32 -21 8 0 31 -9 53 -20 22 -11 49 -20 61 -20 12 0 38 -8 58 -19 20 -10 62 -27 95 -37 59 -19 101 -58 91 -86 -6 -15 -76 -58 -120 -73 -16 -6 -52 -21 -79 -34 -59 -27 -93 -22 -102 16 -4 15 -2 40 4 57 10 24 9 33 -4 47 -15 17 -132 69 -155 69 -5 0 -19 -19 -30 -42 -12 -24 -29 -59 -39 -78 -39 -72 -30 -86 95 -150 28 -14 59 -30 70 -36 11 -6 36 -19 55 -28 19 -10 64 -33 100 -51 36 -19 92 -46 125 -61 120 -54 132 -72 95 -144 -29 -56 -55 -60 -124 -15 -31 19 -64 38 -74 42 -9 3 -24 11 -32 18 -31 25 -132 75 -152 75 -11 0 -27 -8 -34 -17 -27 -35 -84 -142 -84 -157 0 -8 20 -29 45 -46 32 -22 45 -38 45 -54 0 -28 -11 -38 -70 -58 -77 -27 -99 -29 -148 -13 -93 32 -104 70 -44 152 20 29 50 71 65 95 16 24 44 66 63 93 39 57 42 98 8 103 -12 2 -30 12 -40 23 -27 30 -78 26 -96 -8 -22 -44 -140 -222 -196 -296 -29 -37 -52 -72 -52 -77 0 -11 67 -80 78 -80 4 0 32 -22 61 -50 29 -27 57 -50 62 -50 4 0 30 -19 58 -42 27 -24 58 -50 69 -58 65 -50 172 -155 172 -170 0 -18 -13 -45 -40 -87 -25 -39 -59 -29 -125 35 -33 32 -72 67 -88 79 -15 12 -67 57 -115 101 -224 204 -208 192 -242 181 -16 -6 -33 -15 -36 -20 -10 -17 -38 -9 -66 18 -34 32 -35 59 -7 90 18 18 20 25 9 38 -7 8 -18 15 -24 15 -20 0 -82 71 -116 133 -27 47 -32 66 -28 100 8 67 47 136 98 174 59 43 225 123 256 123 18 0 102 26 152 47 18 8 51 17 74 21 34 6 45 14 61 42 11 19 23 37 27 40 4 3 14 21 22 40 8 19 29 67 46 105 44 98 85 220 122 355 11 41 24 84 29 95 5 11 12 47 15 80 4 33 13 83 22 110 13 42 21 136 23 283 1 59 79 108 111 70z m-5462 -1757 c31 -39 187 -209 263 -289 116 -120 276 -241 518 -394 206 -130 348 -195 611 -280 226 -73 249 -78 445 -108 39 -6 95 -15 125 -20 70 -12 613 -13 705 -1 202 27 243 33 275 43 19 6 64 17 100 24 70 13 236 66 285 91 17 9 44 19 60 24 56 14 150 51 166 65 8 8 20 14 26 14 17 0 121 48 128 59 3 6 16 11 29 11 13 0 31 9 41 20 10 11 27 22 38 26 11 3 41 22 67 40 26 19 51 34 55 34 4 0 29 17 56 38 26 20 82 61 124 90 81 57 98 59 135 19 27 -28 25 -59 -5 -85 l-26 -23 44 -57 c23 -31 58 -81 76 -110 l34 -53 -19 -37 c-11 -20 -29 -50 -41 -65 -13 -16 -23 -37 -23 -48 0 -24 61 -51 165 -74 113 -24 127 -28 138 -46 12 -19 3 -62 -19 -83 -17 -18 -93 -22 -122 -7 -9 5 -35 14 -57 19 -92 24 -151 45 -175 62 -14 9 -36 21 -50 25 -33 9 -170 83 -193 102 -9 9 -17 24 -17 34 0 18 46 79 59 79 5 0 25 -12 46 -26 42 -28 84 -27 117 3 23 21 23 47 0 81 -11 15 -30 44 -43 65 -29 45 -62 57 -89 32 -11 -10 -29 -23 -40 -29 -84 -47 -178 -107 -194 -125 -19 -21 -19 -22 23 -103 46 -92 60 -119 85 -163 10 -16 25 -48 34 -70 17 -41 55 -115 111 -218 17 -31 31 -60 31 -62 0 -10 -77 -52 -107 -58 -32 -6 -63 11 -63 35 0 6 -11 34 -24 62 -105 221 -126 266 -126 272 0 14 -50 113 -60 119 -6 3 -10 15 -10 25 0 30 -20 67 -45 80 -19 10 -28 8 -64 -14 -22 -15 -41 -31 -41 -37 0 -5 14 -39 30 -75 35 -74 31 -94 -22 -114 -18 -6 -44 -18 -58 -25 -14 -7 -47 -20 -75 -29 -64 -21 -115 -52 -115 -70 0 -19 48 -76 64 -76 6 0 28 11 48 25 20 14 48 25 62 25 14 0 27 4 30 9 3 4 34 11 68 14 85 8 152 -20 173 -71 38 -90 -2 -165 -80 -153 -31 5 -45 21 -45 53 0 16 -5 38 -10 49 -24 44 -144 5 -201 -67 -38 -48 -38 -89 1 -142 39 -54 64 -67 98 -53 37 16 89 15 142 -2 56 -18 67 -35 49 -73 l-14 -29 -120 0 c-105 0 -127 3 -175 24 -61 27 -60 27 -114 74 -38 33 -39 36 -40 103 -1 58 3 75 23 103 l24 34 -29 26 c-16 14 -40 35 -54 46 -14 11 -36 37 -49 58 -23 37 -23 40 -7 73 9 19 28 39 43 45 111 44 162 62 185 66 15 3 39 16 53 29 l26 24 -21 30 c-24 34 -38 36 -95 14 -94 -35 -151 -54 -170 -54 -11 0 -36 -6 -55 -14 -19 -7 -49 -18 -66 -25 -41 -16 -47 -40 -27 -110 8 -31 22 -96 30 -146 7 -49 20 -110 28 -135 7 -25 17 -69 20 -99 4 -30 14 -69 21 -87 37 -89 -3 -154 -95 -154 -40 0 -53 20 -59 95 -2 36 -10 69 -16 74 -7 6 -33 -1 -71 -19 -72 -35 -112 -37 -191 -10 -60 21 -107 57 -128 100 -20 39 -20 159 0 200 22 45 59 86 106 116 52 33 138 34 168 2 33 -36 23 -62 -30 -71 -25 -5 -54 -10 -65 -13 -11 -2 -30 -20 -43 -39 -27 -43 -25 -89 7 -151 18 -35 28 -43 60 -48 52 -8 94 7 131 46 29 31 30 37 26 93 -11 127 -42 278 -61 292 -22 15 -60 16 -165 2 -41 -5 -115 -13 -163 -17 -99 -9 -110 -17 -103 -72 3 -19 6 -167 7 -327 1 -220 -1 -296 -11 -308 -19 -23 -73 -29 -108 -11 -37 19 -42 32 -42 112 0 58 -2 64 -21 64 -11 0 -42 -9 -69 -21 l-49 -21 -80 27 c-44 14 -85 33 -91 41 -7 8 -18 14 -25 14 -6 0 -20 9 -30 20 -23 25 -41 25 -90 -1 -53 -27 -109 -18 -205 30 -8 4 -34 31 -57 60 -38 45 -43 58 -43 101 0 62 36 144 81 186 36 32 108 60 132 51 8 -3 18 -2 23 3 5 5 33 1 62 -8 55 -17 67 -34 60 -83 -3 -23 -6 -24 -78 -21 -70 4 -77 2 -100 -23 -20 -22 -25 -37 -25 -82 0 -50 3 -57 34 -85 29 -26 39 -30 74 -25 48 7 57 18 57 75 0 57 26 82 84 82 37 0 48 5 71 32 25 29 27 38 23 105 -4 94 -14 104 -110 111 -40 2 -77 8 -83 12 -5 5 -37 11 -70 15 -33 4 -92 13 -131 21 -90 18 -119 9 -129 -38 -4 -18 -13 -51 -20 -73 -7 -22 -23 -78 -35 -125 -27 -106 -71 -252 -80 -265 -4 -5 -10 -27 -13 -48 -8 -50 -44 -107 -68 -107 -10 0 -37 7 -59 16 -50 20 -51 37 -9 154 17 47 37 112 45 145 8 33 19 64 24 69 6 6 10 20 10 33 0 18 -9 25 -51 37 -28 9 -57 20 -63 24 -6 5 -30 12 -53 16 -37 5 -44 3 -62 -20 -12 -15 -21 -32 -21 -39 0 -6 -11 -22 -25 -35 -34 -31 -53 -20 -79 46 -20 50 -32 168 -22 209 9 35 41 37 103 4 30 -16 64 -29 74 -29 11 0 39 -9 61 -20 23 -11 49 -20 58 -20 8 0 32 -9 53 -20 21 -12 47 -18 57 -15 21 7 50 82 50 131 0 28 -5 35 -32 48 -55 24 -173 66 -186 66 -17 0 -136 50 -142 60 -3 4 -29 14 -58 23 l-54 15 -33 -72 c-38 -84 -59 -106 -83 -88 -10 7 -28 18 -42 24 -14 7 -46 27 -71 44 -26 18 -69 44 -97 58 -47 24 -50 24 -66 7 -20 -22 -21 -70 -1 -97 8 -12 39 -33 69 -48 30 -15 77 -47 104 -71 84 -76 90 -161 16 -239 -43 -45 -82 -48 -119 -9 -32 35 -32 68 0 97 51 48 20 106 -76 140 -64 23 -113 15 -156 -27 -25 -24 -33 -39 -33 -66 0 -52 40 -129 98 -192 28 -30 52 -60 52 -68 0 -18 -39 -51 -60 -51 -27 0 -146 133 -180 200 -26 51 -30 70 -30 140 0 68 4 86 24 119 28 44 82 81 118 81 40 0 48 18 48 102 0 77 1 80 38 119 l37 40 40 -17 c22 -9 60 -31 85 -48 67 -48 136 -86 157 -86 20 0 53 33 53 53 0 6 -6 19 -13 27 -14 18 -123 90 -135 90 -5 0 -37 22 -73 50 -35 27 -69 50 -75 50 -6 0 -19 9 -28 19 -30 33 -62 12 -136 -89 -14 -19 -45 -57 -70 -85 -25 -28 -57 -66 -72 -85 -43 -56 -122 -161 -137 -184 -52 -76 -88 -85 -139 -35 -30 29 -43 73 -24 81 4 2 34 35 66 73 33 39 72 84 88 100 17 17 47 53 69 80 21 28 74 93 119 145 44 52 80 100 80 106 0 13 -24 35 -68 60 l-33 19 -60 -65 c-188 -207 -230 -251 -285 -301 -21 -19 -58 -56 -81 -82 -23 -26 -50 -47 -59 -47 -22 0 -84 64 -84 86 0 9 23 41 50 70 28 29 50 57 50 62 0 5 -21 24 -47 43 -105 74 -118 88 -138 148 -25 75 -15 126 40 200 56 76 106 101 200 101 88 0 151 -34 195 -105 26 -42 15 -86 -23 -96 -24 -6 -32 -2 -59 32 -30 37 -34 39 -86 39 -52 0 -58 -3 -95 -42 -37 -39 -39 -44 -35 -90 3 -27 14 -62 25 -76 18 -24 28 -27 86 -30 l66 -3 116 113 c64 62 121 120 126 131 9 15 -1 29 -55 82 -36 35 -66 68 -66 73 0 5 -23 31 -51 58 -84 80 -92 125 -31 158 39 22 45 20 80 -23z" fill="#212153"/>
<path d="M9088 8229 c-12 -16 -44 -43 -70 -60 -60 -36 -135 -40 -200 -8 -35 16 -48 18 -70 10 -26 -10 -28 -14 -28 -70 0 -72 33 -130 92 -161 44 -23 115 -26 143 -6 11 7 31 17 45 21 14 4 29 14 35 20 5 7 46 32 90 55 111 59 115 62 115 83 0 34 -95 147 -124 147 -3 0 -16 -14 -28 -31z" fill="#212153"/>
<path d="M6159 7933 c-40 -24 -59 -68 -59 -134 0 -54 2 -60 25 -69 14 -5 25 -13 25 -18 0 -15 -24 -32 -44 -32 -30 0 -85 -36 -97 -63 -13 -29 -63 -57 -101 -57 -18 0 -45 11 -65 26 -31 23 -33 29 -33 85 0 58 -1 59 -27 59 -36 -1 -133 -24 -161 -39 -11 -6 -38 -11 -59 -11 -33 0 -44 -7 -88 -55 l-51 -55 -69 5 c-75 6 -101 19 -150 72 -20 22 -42 35 -66 38 -19 2 -51 11 -69 19 -24 10 -40 11 -53 4 -10 -5 -25 -7 -34 -4 -8 4 -33 1 -55 -6 -31 -9 -44 -9 -59 0 -10 7 -33 12 -51 12 -18 0 -46 7 -63 16 -16 9 -40 18 -52 19 -11 2 -30 6 -41 9 -28 9 -62 -55 -42 -79 10 -12 10 -21 1 -41 -6 -14 -11 -43 -11 -64 0 -65 -25 -82 -113 -77 -40 3 -91 12 -114 21 -69 26 -132 -6 -133 -67 0 -15 -7 -42 -16 -58 -8 -17 -15 -45 -14 -62 3 -50 1 -55 -20 -62 -30 -9 -25 -41 9 -55 47 -19 94 -10 109 23 18 38 71 87 93 87 10 0 21 5 24 10 3 6 17 10 31 10 40 0 28 -27 -29 -65 -60 -40 -88 -72 -107 -126 -18 -49 -7 -84 30 -99 36 -15 45 -30 54 -86 9 -61 72 -162 132 -214 29 -25 98 -86 152 -137 78 -71 109 -93 139 -99 21 -3 75 -24 120 -45 105 -50 135 -50 215 1 40 25 75 40 95 40 36 0 116 17 148 32 11 5 52 8 90 6 57 -2 70 -6 73 -20 2 -10 -25 -54 -59 -99 -34 -45 -72 -101 -84 -123 -27 -51 -67 -77 -92 -58 -37 26 -45 24 -81 -15 -45 -49 -102 -77 -140 -68 -21 4 -35 -1 -58 -20 -33 -29 -34 -29 -69 -13 -21 10 -31 9 -54 -5 -19 -11 -39 -14 -64 -10 -30 4 -42 1 -67 -21 -37 -31 -42 -32 -64 -8 -15 17 -15 22 -2 54 17 39 8 58 -29 58 -11 0 -31 9 -45 20 -37 29 -49 25 -71 -25 -11 -24 -24 -47 -29 -50 -21 -13 -9 -62 25 -102 19 -23 35 -50 35 -61 0 -11 11 -34 25 -50 14 -17 25 -34 25 -39 0 -4 19 -31 41 -58 23 -28 52 -66 64 -85 24 -37 104 -133 156 -187 18 -18 37 -43 44 -55 44 -83 83 -145 107 -172 10 -11 18 -25 18 -32 0 -6 7 -17 15 -24 8 -7 15 -19 15 -26 0 -8 16 -38 35 -68 19 -30 35 -59 35 -64 0 -5 11 -19 25 -32 14 -13 25 -28 25 -34 0 -22 202 -227 239 -242 20 -8 47 -26 61 -39 14 -13 47 -34 74 -46 69 -30 179 -20 306 27 48 17 92 28 111 25 8 -1 24 8 34 19 10 11 27 20 38 20 11 0 34 11 51 23 17 13 49 30 71 37 22 7 45 16 50 20 6 4 21 11 35 15 14 4 41 18 60 30 19 13 52 26 72 29 21 4 50 17 65 30 15 13 38 26 50 30 14 5 28 23 39 54 10 26 27 58 38 72 23 28 43 60 63 105 8 17 19 38 24 48 6 10 9 100 8 208 -2 182 -1 190 19 212 15 16 22 36 22 65 0 44 28 82 61 82 26 0 92 -78 82 -98 -9 -19 -8 -147 2 -234 6 -49 4 -62 -14 -87 -19 -26 -19 -30 -5 -42 9 -8 38 -12 75 -10 95 4 117 -33 56 -92 -38 -36 -77 -99 -77 -124 0 -9 -7 -24 -15 -33 -11 -13 -17 -45 -19 -114 l-3 -96 27 0 c32 0 40 -14 40 -76 0 -26 8 -57 20 -76 11 -18 20 -46 20 -62 0 -16 7 -37 16 -47 21 -23 34 -82 22 -103 -6 -11 -6 -27 0 -45 12 -33 -4 -87 -36 -121 -11 -12 -23 -34 -27 -48 -4 -15 -15 -37 -26 -48 -14 -15 -22 -41 -26 -91 -7 -89 7 -103 50 -50 45 57 80 46 102 -32 8 -26 20 -41 45 -53 44 -22 69 -22 108 -2 36 17 46 30 47 59 0 17 7 20 45 20 l45 0 5 95 c3 65 11 105 23 129 17 31 22 74 15 145 -2 19 3 32 15 40 15 9 21 6 38 -16 28 -38 114 -91 136 -84 33 12 73 55 73 78 0 15 16 39 40 63 42 41 49 69 25 101 -8 10 -15 31 -15 45 0 38 -45 114 -75 127 -14 6 -25 19 -25 28 0 20 99 134 117 134 7 0 29 25 48 55 35 55 43 59 115 69 19 2 56 10 83 16 39 10 47 15 47 35 0 29 -9 32 -136 34 -64 2 -104 -1 -109 -8 -3 -6 -22 -11 -41 -11 -28 0 -36 5 -44 26 -11 28 -3 49 29 76 22 19 28 53 11 63 -15 9 -49 87 -43 101 6 17 56 36 85 33 43 -4 128 38 145 73 36 74 36 73 11 114 -13 22 -30 58 -36 81 -18 59 -4 83 47 83 62 0 107 65 62 90 -11 5 -32 10 -46 10 -23 0 -26 4 -23 27 2 19 11 29 35 37 17 6 43 23 57 39 16 18 35 27 55 27 25 0 33 8 60 55 17 30 31 63 31 74 0 11 5 23 10 26 6 3 10 19 10 35 0 21 -7 32 -27 42 -14 7 -29 20 -33 28 -29 60 -40 97 -40 135 0 40 -3 45 -27 51 -35 8 -63 32 -63 53 0 28 -56 86 -107 111 -26 13 -56 32 -66 42 -11 11 -33 18 -55 18 -62 0 -82 22 -82 86 l0 56 -75 75 c-92 92 -98 110 -56 169 35 51 39 79 14 123 -21 36 -38 39 -53 11 -15 -27 -41 -13 -78 42 -54 81 -55 84 -36 124 9 19 28 42 40 51 32 21 30 30 -11 54 -29 17 -35 27 -35 55 0 29 -3 34 -25 34 -27 0 -45 -25 -45 -63 0 -34 -24 -51 -57 -42 -16 4 -40 7 -54 8 -18 1 -46 22 -87 65 -59 61 -63 64 -99 57 -36 -6 -41 -3 -80 39 -25 27 -40 52 -37 60 8 21 -27 36 -81 36 -25 0 -60 7 -77 16 -21 11 -56 16 -109 16 -43 -1 -81 3 -85 9 -3 5 -20 7 -37 4 -20 -4 -43 -1 -60 8 -22 11 -55 13 -148 9 -110 -4 -122 -3 -142 15 -34 31 -41 33 -68 16z m-539 -1368 c0 -8 -7 -15 -15 -15 -16 0 -20 12 -8 23 11 12 23 8 23 -8z" fill="#212153"/>
<path d="M2880 5743 c-115 -6 -114 -5 -105 -71 4 -31 8 -66 9 -77 3 -37 17 -64 34 -67 9 -2 39 2 67 9 27 7 60 13 73 13 35 0 62 18 62 41 0 12 -7 52 -17 90 -14 59 -19 69 -37 67 -12 -1 -50 -3 -86 -5z" fill="#212153"/>
<path d="M9244 5715 c-10 -16 -14 -34 -10 -50 4 -17 0 -37 -11 -55 -15 -27 -16 -32 -2 -45 8 -8 44 -19 79 -25 36 -6 79 -13 96 -16 21 -4 35 -1 40 8 36 56 47 181 17 196 -10 5 -57 10 -105 11 -83 1 -88 0 -104 -24z" fill="#212153"/>
<path d="M8661 4585 c-25 -12 -88 -37 -140 -54 -144 -48 -221 -112 -221 -183 0 -42 39 -103 84 -132 64 -41 81 -34 143 59 72 108 116 171 143 204 17 19 30 42 30 50 0 8 9 25 21 37 21 22 19 45 -4 43 -7 -1 -32 -12 -56 -24z" fill="#212153"/>
<path d="M5933 2944 c-3 -7 0 -35 6 -62 7 -34 7 -61 0 -88 -16 -58 -85 -143 -116 -144 -12 0 -43 -38 -43 -52 0 -4 16 -26 35 -47 29 -32 45 -40 83 -46 60 -8 121 14 157 57 24 28 25 35 25 173 0 79 5 156 10 171 6 15 7 30 3 34 -4 4 -41 10 -81 13 -56 3 -75 1 -79 -9z" fill="#212153"/>
<path d="M2470 10062 c0 -15 4 -32 9 -37 5 -6 14 -37 20 -70 6 -33 20 -94 32 -135 11 -41 24 -91 28 -110 17 -77 43 -110 255 -322 119 -119 223 -219 231 -222 19 -7 92 51 141 112 15 18 38 39 53 46 40 21 111 89 111 107 0 9 -7 23 -16 30 -9 8 -43 47 -75 89 -32 41 -83 102 -114 135 -30 33 -55 64 -55 69 0 9 -45 62 -117 139 -19 20 -45 37 -57 37 -12 0 -38 9 -59 20 -20 11 -45 20 -55 20 -10 0 -22 4 -27 9 -6 5 -35 16 -65 26 -30 10 -59 21 -65 25 -5 5 -28 12 -50 16 -22 4 -51 15 -64 25 -36 29 -61 25 -61 -9z" fill="#212153"/>
<path d="M9625 10011 c-28 -10 -69 -28 -92 -39 -22 -12 -76 -33 -119 -48 -89 -31 -118 -50 -154 -102 -27 -40 -40 -56 -110 -138 -25 -29 -63 -73 -85 -99 -22 -26 -50 -57 -61 -69 -12 -11 -38 -43 -58 -70 l-37 -48 42 -37 c23 -20 85 -78 137 -128 52 -51 98 -93 103 -93 9 0 333 326 355 359 9 12 27 26 39 31 17 6 27 22 35 52 6 24 16 57 22 73 6 17 15 53 20 80 6 28 16 66 23 85 50 142 56 169 45 189 -13 25 -38 26 -105 2z" fill="#212153"/>
<path d="M2047 9663 c-11 -10 -8 -68 3 -79 10 -10 35 -70 66 -159 8 -22 21 -52 29 -67 8 -14 15 -34 15 -45 0 -20 38 -100 58 -122 7 -7 20 -23 27 -35 8 -12 31 -30 52 -41 21 -10 61 -40 89 -65 28 -25 90 -74 138 -110 48 -36 108 -84 134 -107 26 -24 52 -43 59 -43 6 0 22 15 34 33 26 36 36 48 149 166 44 46 80 91 80 99 0 9 -27 41 -61 71 -33 31 -137 130 -230 221 l-169 164 -77 12 c-43 7 -109 24 -148 39 -38 16 -96 31 -127 34 -32 4 -65 14 -76 24 -20 18 -34 21 -45 10z" fill="#212153"/>
<path d="M10080 9604 c-25 -7 -53 -14 -63 -14 -11 0 -33 -6 -50 -14 -18 -8 -50 -16 -72 -19 -23 -2 -75 -15 -117 -27 -58 -18 -85 -32 -117 -64 -133 -132 -243 -237 -315 -301 -90 -82 -91 -89 -24 -168 144 -167 182 -207 197 -207 10 0 29 9 42 20 38 32 128 112 169 150 21 19 73 62 115 95 125 98 155 129 155 162 0 17 9 38 20 48 12 11 20 31 20 49 0 17 9 45 20 61 11 17 20 38 20 48 0 10 10 37 22 60 46 89 49 98 43 117 -7 23 -6 23 -65 4z" fill="#212153"/>
<path d="M1673 9173 c-16 -6 -17 -35 -3 -49 6 -6 49 -86 95 -178 46 -92 95 -180 109 -197 24 -29 118 -99 132 -99 3 0 34 -17 67 -37 60 -35 80 -48 136 -85 14 -10 33 -21 41 -25 8 -3 22 -12 30 -20 36 -34 135 -84 155 -79 11 3 32 25 47 48 59 92 83 125 129 179 27 31 49 65 49 75 0 11 -17 33 -37 49 -56 45 -114 88 -150 110 -17 11 -53 39 -80 62 -168 148 -219 183 -267 183 -14 0 -37 5 -53 11 -15 7 -58 11 -95 10 -47 -1 -79 4 -110 18 -41 18 -170 35 -195 24z" fill="#212153"/>
<path d="M10388 9145 c-3 -3 -30 -8 -59 -10 -30 -2 -83 -9 -119 -15 -36 -6 -89 -14 -117 -18 -29 -5 -59 -15 -65 -23 -19 -23 -214 -180 -252 -204 -18 -11 -52 -37 -75 -57 -22 -21 -44 -38 -49 -38 -4 0 -22 -14 -39 -31 -36 -33 -43 -69 -17 -90 16 -14 65 -83 121 -173 17 -28 41 -60 52 -70 21 -19 22 -19 65 1 24 12 59 35 77 50 38 33 101 74 230 150 30 17 59 36 64 40 6 5 24 17 42 28 17 10 40 35 50 54 10 20 32 57 50 82 18 26 33 52 33 59 0 13 73 152 101 192 11 14 19 38 19 52 0 25 -3 26 -53 26 -30 0 -56 -2 -59 -5z" fill="#212153"/>
<path d="M1340 8634 c0 -15 15 -43 35 -67 19 -22 35 -45 35 -51 0 -6 20 -36 45 -66 25 -30 45 -60 45 -67 0 -7 11 -25 25 -40 14 -16 38 -47 54 -69 18 -26 47 -50 78 -64 26 -12 80 -37 119 -56 39 -19 77 -34 85 -34 8 0 30 -11 49 -25 19 -14 39 -25 45 -25 7 0 34 -12 61 -27 27 -14 63 -33 79 -41 17 -9 36 -22 43 -29 7 -7 19 -13 25 -13 28 1 37 14 117 165 18 33 47 80 66 104 19 24 34 52 34 62 0 19 -35 48 -114 95 -28 16 -66 39 -85 51 -20 13 -47 28 -61 35 -14 7 -42 27 -63 45 -20 18 -44 33 -52 33 -8 0 -29 12 -47 28 -61 50 -98 63 -199 67 -52 2 -136 7 -188 10 -69 5 -100 4 -118 -6 -19 -10 -28 -10 -43 -1 -11 7 -31 12 -45 12 -20 0 -25 -5 -25 -26z" fill="#212153"/>
<path d="M10340 8630 c-19 -11 -50 -27 -67 -35 -18 -9 -33 -19 -33 -24 0 -5 -24 -22 -52 -36 -29 -15 -71 -40 -93 -56 -22 -16 -49 -34 -60 -40 -11 -5 -38 -21 -60 -34 -22 -14 -51 -30 -65 -37 -34 -16 -70 -49 -70 -64 0 -6 15 -37 34 -67 18 -31 39 -71 45 -89 7 -18 17 -40 22 -48 5 -8 19 -34 30 -57 11 -23 29 -49 41 -57 19 -14 24 -14 38 -1 9 8 22 15 29 15 6 0 36 16 66 35 30 19 66 37 80 41 14 3 28 10 31 15 3 5 38 25 79 44 40 18 76 39 80 44 3 6 15 11 27 11 40 0 90 34 144 99 31 36 58 73 62 81 11 27 75 125 104 159 16 18 37 49 46 68 14 30 14 35 2 43 -8 6 -107 10 -220 10 -188 0 -208 -2 -240 -20z" fill="#212153"/>
<path d="M1555 8151 c-4 -3 -50 -9 -103 -13 -53 -4 -122 -10 -152 -13 -30 -2 -93 -7 -139 -9 -46 -2 -88 -9 -94 -15 -11 -11 -10 -12 146 -190 45 -52 98 -113 117 -136 39 -47 81 -75 112 -75 11 0 35 -9 52 -19 17 -11 58 -22 91 -26 33 -4 67 -13 75 -19 8 -7 49 -22 90 -35 69 -21 115 -39 197 -78 17 -8 37 -12 43 -8 17 10 79 142 86 184 4 19 22 63 41 97 32 61 33 64 18 88 -9 14 -27 28 -38 32 -21 6 -97 39 -205 89 -29 14 -60 25 -68 25 -9 0 -33 12 -53 28 -56 43 -203 106 -216 93z" fill="#212153"/>
<path d="M10560 8136 c-25 -12 -54 -27 -65 -33 -11 -6 -49 -25 -85 -41 -36 -16 -109 -51 -162 -76 -54 -25 -103 -46 -111 -46 -18 0 -87 -49 -87 -62 0 -6 15 -43 34 -82 18 -39 46 -111 63 -161 l30 -90 34 2 c19 1 72 18 119 38 46 19 89 35 95 35 5 0 48 15 95 34 47 18 117 44 157 56 67 21 75 27 129 93 77 94 91 110 175 199 43 47 69 83 66 91 -3 9 -27 17 -64 21 -230 25 -282 32 -289 39 -15 14 -90 5 -134 -17z" fill="#212153"/>
<path d="M10726 7630 c-16 -10 -45 -21 -65 -25 -20 -3 -51 -15 -69 -26 -18 -10 -41 -19 -51 -19 -9 0 -22 -5 -28 -11 -6 -6 -29 -15 -50 -19 -21 -4 -60 -16 -88 -25 -27 -10 -68 -24 -91 -32 -22 -7 -49 -20 -60 -27 -20 -15 -22 -3 23 -156 8 -30 23 -85 32 -123 9 -37 24 -74 33 -83 15 -16 21 -15 80 4 114 39 161 53 223 67 33 8 85 21 115 30 30 8 70 15 90 15 46 0 61 11 213 160 71 69 136 128 146 131 9 4 23 19 31 33 18 35 7 43 -70 52 -30 3 -64 12 -75 18 -11 7 -38 13 -59 15 -22 1 -43 4 -47 6 -11 7 -162 35 -184 34 -11 0 -33 -9 -49 -19z" fill="#212153"/>
<path d="M1328 7619 c-7 -5 -28 -9 -46 -9 -18 0 -45 -6 -60 -14 -31 -15 -123 -31 -165 -27 -15 1 -51 -4 -80 -13 -29 -9 -63 -17 -77 -18 -50 -6 -33 -39 66 -128 51 -47 104 -94 116 -106 13 -11 30 -29 39 -40 27 -32 83 -74 101 -74 9 0 24 -8 34 -17 9 -10 40 -20 68 -24 136 -19 204 -32 250 -49 28 -11 83 -24 121 -30 39 -6 88 -16 109 -21 48 -13 59 -3 76 74 7 29 18 66 26 84 8 17 19 51 24 75 5 24 15 62 21 85 10 33 10 45 0 56 -15 19 -133 67 -164 67 -12 0 -37 9 -55 20 -18 11 -40 20 -50 20 -17 0 -98 25 -197 61 -71 25 -141 38 -157 28z" fill="#212153"/>
<path d="M10795 7095 c-33 -13 -76 -24 -96 -24 -20 -1 -58 -8 -85 -17 -27 -9 -74 -20 -104 -24 -65 -9 -168 -35 -177 -44 -4 -4 -1 -30 6 -59 13 -54 38 -201 48 -275 l5 -44 37 8 c20 4 65 8 101 9 36 0 71 4 78 9 14 8 30 10 197 24 105 9 186 32 221 63 11 11 23 19 27 19 10 0 154 107 162 120 4 6 28 21 55 35 56 28 83 61 71 83 -9 15 -75 38 -141 49 -19 3 -46 13 -59 21 -40 27 -194 72 -241 71 -25 -1 -72 -11 -105 -24z" fill="#212153"/>
<path d="M1140 7054 c-36 -13 -74 -24 -85 -24 -11 0 -45 -9 -75 -21 -30 -11 -82 -28 -115 -37 -121 -31 -155 -54 -122 -82 53 -44 166 -125 197 -141 21 -11 46 -29 56 -40 21 -23 89 -71 135 -95 24 -12 37 -13 60 -5 21 7 38 7 57 -1 34 -13 137 -20 266 -19 81 2 105 -2 142 -19 25 -12 57 -20 76 -18 37 3 31 -15 66 206 11 68 25 129 31 135 34 34 -21 77 -114 91 -22 3 -62 11 -90 16 -27 6 -59 12 -70 14 -72 9 -121 20 -130 26 -6 5 -38 12 -73 16 -34 3 -65 11 -68 15 -9 16 -77 8 -144 -17z" fill="#212153"/>
<path d="M10950 6573 c-25 -2 -54 -8 -65 -12 -11 -5 -67 -12 -125 -15 -58 -4 -152 -9 -210 -13 -70 -4 -111 -10 -122 -20 -14 -12 -16 -34 -13 -151 2 -75 6 -158 10 -183 l7 -46 289 -5 288 -6 50 27 c120 64 188 102 240 135 22 15 44 26 48 26 11 0 63 53 63 65 0 10 -26 23 -195 98 -38 17 -77 36 -85 42 -62 47 -110 63 -180 58z" fill="#212153"/>
<path d="M1065 6493 c-110 -54 -199 -91 -234 -98 -13 -2 -33 -11 -45 -18 -11 -8 -34 -17 -51 -21 -36 -9 -65 -33 -65 -55 0 -10 27 -30 67 -51 37 -19 83 -46 102 -59 20 -13 83 -49 141 -80 l105 -55 165 -1 c178 0 479 11 486 18 3 3 5 58 5 123 1 72 7 144 17 182 19 79 12 88 -65 85 -32 -1 -64 4 -77 11 -14 9 -70 15 -168 18 -81 3 -153 10 -160 15 -7 6 -45 13 -83 15 -65 5 -76 2 -140 -29z" fill="#212153"/>
<path d="M10435 6028 c-7 -23 -16 -102 -21 -183 -2 -44 -9 -93 -14 -109 -7 -21 -7 -40 0 -62 11 -31 14 -33 73 -37 34 -3 159 -15 277 -27 118 -11 233 -19 255 -17 36 4 113 36 270 115 28 13 66 27 85 31 23 4 36 13 38 25 4 20 -34 66 -54 66 -7 0 -17 6 -21 14 -4 8 -29 25 -54 37 -74 38 -142 80 -172 108 l-28 26 -220 2 c-125 2 -228 7 -239 13 -28 15 -170 13 -175 -2z" fill="#212153"/>
<path d="M1470 5979 c-36 -5 -130 -9 -210 -10 -125 -1 -148 -4 -169 -20 -13 -11 -32 -19 -41 -19 -10 0 -23 -7 -30 -15 -7 -8 -17 -15 -22 -15 -5 0 -35 -17 -67 -39 -32 -21 -83 -51 -112 -66 -138 -70 -156 -84 -138 -116 5 -11 17 -19 27 -19 20 0 77 -20 109 -38 12 -7 30 -12 40 -12 10 0 45 -14 78 -31 99 -50 191 -79 223 -70 16 5 68 9 116 10 51 1 99 7 115 15 15 8 64 14 120 15 52 1 117 8 145 16 27 8 63 15 78 15 l29 0 -6 108 c-3 59 -7 142 -8 184 -1 42 -6 81 -12 86 -33 29 -135 37 -265 21z" fill="#212153"/>
<path d="M10408 5544 c-20 -6 -36 -54 -48 -144 -5 -36 -14 -87 -20 -115 -6 -27 -13 -61 -16 -75 -4 -20 0 -28 18 -37 23 -11 89 -28 143 -37 91 -14 328 -72 357 -87 30 -15 71 -8 155 28 17 7 37 13 45 13 7 0 38 9 68 20 30 11 64 20 75 20 11 0 38 9 60 20 22 10 52 22 68 25 15 3 27 9 27 14 0 18 -86 91 -160 136 -9 6 -51 41 -94 79 l-77 70 -97 14 c-53 7 -140 17 -192 21 -52 4 -106 12 -120 18 -29 12 -166 24 -192 17z" fill="#212153"/>
<path d="M1699 5480 c-9 -5 -34 -9 -55 -9 -34 1 -120 -10 -219 -26 -16 -3 -53 -5 -82 -5 -29 0 -55 -5 -58 -10 -3 -6 -29 -10 -57 -10 -46 0 -60 -6 -127 -52 -42 -28 -97 -68 -123 -87 -40 -31 -156 -115 -211 -154 -37 -25 10 -67 76 -67 18 0 46 -9 62 -20 17 -11 41 -20 55 -20 14 0 38 -7 54 -15 15 -8 38 -15 51 -15 12 0 48 -11 79 -25 58 -26 110 -32 121 -16 3 6 40 17 83 27 42 9 89 23 104 30 15 8 51 14 80 14 36 0 63 6 83 20 20 13 47 20 81 20 29 0 65 7 80 15 16 8 36 15 45 15 21 0 44 49 29 64 -5 5 -10 27 -10 47 0 21 -4 40 -9 43 -9 6 -28 96 -35 174 -3 29 -8 57 -11 62 -8 13 -65 12 -86 0z" fill="#212153"/>
<path d="M10280 5061 c-5 -11 -10 -28 -10 -38 0 -32 -32 -157 -56 -216 -13 -32 -24 -65 -24 -72 0 -20 42 -40 195 -91 74 -24 147 -49 162 -55 51 -21 68 -28 113 -47 38 -16 60 -18 140 -12 52 3 105 11 116 18 12 6 50 13 85 16 35 3 78 10 94 17 17 6 46 15 65 18 19 4 35 12 35 19 0 12 -201 222 -285 297 -42 38 -52 41 -140 54 -52 8 -104 20 -115 28 -11 7 -37 13 -58 13 -21 0 -50 6 -65 14 -34 17 -183 56 -216 56 -15 0 -30 -8 -36 -19z" fill="#212153"/>
<path d="M1760 4990 c-30 -10 -65 -19 -78 -19 -13 -1 -36 -8 -52 -16 -16 -8 -57 -19 -92 -25 -114 -17 -143 -23 -153 -30 -5 -5 -34 -15 -64 -24 -40 -12 -71 -32 -120 -76 -36 -33 -83 -75 -104 -92 -21 -18 -61 -55 -90 -83 -29 -27 -65 -60 -80 -73 -57 -47 -31 -60 168 -88 22 -3 56 -9 75 -14 19 -5 74 -16 121 -25 86 -16 130 -13 159 10 8 6 60 26 115 44 55 18 104 37 110 42 5 5 20 9 35 9 14 0 39 9 55 20 17 11 42 20 56 20 15 0 32 6 38 14 7 8 31 18 54 21 23 4 48 12 55 17 14 12 16 60 3 86 -15 29 -61 186 -61 208 0 12 -7 38 -15 58 -13 31 -20 36 -48 35 -17 0 -57 -9 -87 -19z" fill="#212153"/>
<path d="M10130 4568 c-12 -29 -35 -80 -50 -113 -62 -138 -74 -176 -59 -190 18 -18 130 -75 146 -75 7 0 27 -9 45 -20 18 -11 43 -20 55 -20 12 0 34 -11 49 -25 15 -14 35 -25 45 -25 10 0 21 -4 24 -10 3 -5 31 -22 60 -36 30 -14 57 -29 60 -34 7 -11 219 -2 259 11 20 6 40 5 61 -3 27 -9 40 -8 75 6 23 9 51 14 61 11 24 -8 37 21 21 44 -7 9 -17 27 -22 40 -6 13 -35 51 -65 83 -31 33 -80 93 -110 134 -35 47 -68 80 -88 88 -51 22 -102 36 -125 36 -13 0 -59 17 -105 39 -45 21 -119 51 -165 66 -45 15 -85 32 -88 37 -3 4 -18 8 -33 8 -25 0 -32 -7 -51 -52z" fill="#212153"/>
<path d="M1915 4497 c-27 -11 -68 -29 -91 -39 -22 -10 -47 -18 -55 -18 -8 0 -24 -7 -36 -15 -12 -9 -57 -27 -99 -41 -151 -49 -214 -85 -280 -160 -33 -38 -65 -77 -70 -86 -5 -9 -44 -57 -87 -106 -43 -51 -77 -99 -77 -111 0 -18 6 -21 42 -20 24 1 54 -3 68 -9 15 -5 34 -6 48 -1 15 6 31 5 44 -2 13 -7 76 -12 157 -12 l136 0 64 37 c35 20 74 39 87 42 13 4 27 10 30 15 3 5 38 25 77 44 40 19 79 39 87 44 8 5 41 21 73 36 31 15 60 31 62 35 3 4 21 11 40 14 48 9 46 27 -14 150 -63 129 -91 195 -91 212 0 20 -55 16 -115 -9z" fill="#212153"/>
<path d="M9953 4168 c-5 -7 -24 -42 -42 -78 -19 -36 -43 -78 -56 -95 -12 -16 -34 -54 -49 -83 l-27 -54 42 -39 c23 -21 46 -39 51 -39 5 0 36 -18 68 -40 32 -22 63 -40 68 -40 5 0 34 -18 65 -40 30 -22 62 -40 70 -40 8 0 25 -11 38 -25 13 -13 28 -25 32 -25 4 0 20 -9 35 -19 24 -18 49 -20 260 -23 230 -3 232 -3 232 18 0 11 -9 29 -21 40 -12 10 -32 39 -45 64 -90 166 -189 300 -223 300 -9 0 -34 9 -56 20 -22 11 -44 20 -51 20 -6 0 -17 7 -24 15 -7 8 -19 15 -27 15 -8 0 -38 15 -67 34 -29 18 -63 37 -77 41 -13 4 -33 15 -44 25 -25 21 -106 60 -127 60 -9 0 -20 -6 -25 -12z" fill="#212153"/>
<path d="M2181 4086 c-7 -8 -24 -17 -38 -21 -15 -3 -39 -15 -54 -26 -15 -10 -34 -19 -41 -19 -8 0 -23 -9 -33 -20 -10 -11 -23 -20 -29 -20 -6 0 -49 -18 -96 -41 -236 -113 -227 -108 -265 -162 -35 -50 -70 -100 -101 -142 -56 -77 -144 -222 -144 -238 0 -17 6 -18 48 -14 26 3 67 10 92 16 27 6 99 8 180 5 112 -5 142 -3 173 10 21 9 40 23 44 31 3 8 13 15 23 15 10 0 40 17 67 38 26 20 59 43 73 50 14 7 39 21 55 32 17 11 45 26 63 34 17 8 32 20 32 25 0 6 5 11 11 11 6 0 22 9 36 20 14 11 33 20 42 20 20 1 81 55 81 72 -1 7 -12 31 -25 53 -14 22 -34 58 -46 80 -12 22 -30 52 -40 67 -11 14 -19 31 -19 37 0 18 -54 101 -66 101 -6 0 -17 -6 -23 -14z" fill="#212153"/>
<path d="M9693 3721 c-16 -21 -35 -49 -43 -61 -8 -13 -27 -37 -42 -55 -56 -65 -99 -138 -93 -156 4 -10 27 -35 53 -56 26 -20 52 -42 57 -49 6 -6 28 -20 50 -32 22 -11 51 -32 64 -46 14 -14 30 -26 36 -26 7 0 28 -15 48 -32 19 -18 60 -54 90 -80 l55 -48 78 0 c44 0 98 -7 122 -15 24 -9 47 -13 52 -10 5 3 49 -2 99 -10 90 -16 111 -14 111 7 0 16 -153 319 -183 364 -29 42 -88 84 -197 140 -14 7 -35 22 -46 32 -12 11 -35 27 -53 36 -17 9 -50 30 -74 46 -111 79 -129 90 -142 90 -8 0 -27 -17 -42 -39z" fill="#212153"/>
<path d="M2400 3636 c-49 -42 -73 -56 -220 -134 -36 -18 -73 -41 -83 -50 -22 -19 -80 -55 -122 -75 -17 -8 -39 -31 -50 -53 -10 -22 -33 -61 -50 -89 -28 -45 -77 -135 -95 -175 -8 -17 -29 -58 -62 -119 -12 -22 -19 -44 -15 -47 15 -15 143 -3 185 18 36 17 54 19 107 14 44 -4 76 -2 102 7 21 8 56 20 77 27 40 13 99 52 171 115 22 19 57 47 78 62 70 52 182 146 190 159 4 8 14 14 21 14 18 0 46 33 46 53 0 16 -7 26 -61 91 -15 17 -44 57 -65 90 -71 107 -83 124 -93 130 -5 3 -32 -14 -61 -38z" fill="#212153"/>
<path d="M9403 3343 c-9 -16 -61 -76 -115 -135 -54 -58 -98 -110 -98 -115 0 -4 94 -101 209 -215 136 -135 217 -208 230 -208 26 0 105 -19 151 -35 19 -7 71 -21 115 -30 44 -9 92 -23 107 -31 25 -13 58 -19 58 -9 0 13 -30 115 -43 145 -8 19 -27 76 -43 125 -15 50 -31 94 -36 100 -4 5 -8 16 -8 25 0 28 -134 148 -284 255 -31 22 -56 42 -56 45 0 14 -131 110 -149 110 -12 0 -28 -12 -38 -27z" fill="#212153"/>
<path d="M2673 3228 c-37 -28 -77 -61 -89 -72 -12 -12 -36 -32 -54 -46 -19 -14 -63 -49 -99 -77 -37 -29 -70 -56 -76 -61 -85 -66 -105 -86 -105 -111 0 -15 -16 -58 -35 -97 -19 -38 -35 -77 -35 -86 0 -9 -4 -19 -9 -22 -5 -4 -17 -32 -27 -64 -9 -31 -28 -79 -41 -106 -34 -67 -22 -76 65 -52 37 10 84 21 105 24 20 2 40 8 43 13 3 5 20 9 37 9 18 0 45 7 61 15 15 8 43 15 61 15 18 0 46 7 61 15 16 8 129 115 252 237 l223 222 -13 31 c-14 34 -229 265 -247 265 -5 0 -40 -23 -78 -52z" fill="#212153"/>
<path d="M9110 3012 c-8 -3 -65 -52 -126 -108 -62 -57 -116 -104 -121 -104 -6 0 -15 -12 -22 -27 -12 -26 -10 -30 33 -70 25 -23 46 -46 46 -50 0 -5 18 -27 40 -51 22 -24 40 -47 40 -52 0 -5 15 -25 33 -43 31 -33 71 -83 131 -167 17 -22 36 -40 44 -40 8 0 28 -6 45 -14 18 -7 59 -24 92 -36 33 -12 76 -28 95 -37 19 -8 61 -24 92 -34 32 -10 67 -23 79 -29 17 -10 24 -9 37 4 14 14 14 18 0 48 -18 38 -54 175 -78 298 -15 81 -38 117 -127 202 -99 93 -170 166 -245 250 -54 61 -64 68 -88 60z" fill="#212153"/>
<path d="M2862 2713 c-172 -175 -222 -232 -222 -252 -1 -14 -7 -37 -15 -51 -8 -14 -14 -37 -15 -53 0 -15 -4 -35 -9 -45 -14 -25 -41 -121 -41 -143 0 -10 -9 -43 -21 -74 -41 -111 -17 -122 121 -56 47 22 93 41 103 41 11 0 31 8 45 19 15 10 54 26 87 36 50 14 69 27 122 83 35 36 63 69 63 72 0 7 79 110 139 180 16 19 50 62 76 95 25 33 53 63 60 68 27 15 17 54 -22 90 -68 63 -228 203 -238 209 -6 4 -111 -95 -233 -219z" fill="#212153"/>
<path d="M8705 2670 c-10 -11 -22 -20 -28 -20 -5 0 -37 -22 -71 -49 -33 -26 -74 -55 -91 -64 -16 -8 -40 -26 -52 -39 -21 -23 -21 -23 -3 -58 11 -19 24 -45 29 -57 6 -13 15 -23 20 -23 5 0 14 -13 19 -30 6 -16 22 -42 36 -56 13 -15 35 -48 47 -73 13 -25 32 -59 44 -76 11 -16 34 -53 50 -82 20 -35 47 -63 78 -83 26 -16 50 -30 53 -30 3 0 17 -9 31 -20 14 -11 33 -20 43 -20 9 0 39 -11 65 -26 78 -41 139 -75 160 -90 29 -21 65 -18 65 5 0 10 -7 24 -16 32 -12 10 -14 23 -9 60 4 31 2 54 -6 68 -10 16 -11 27 -3 50 10 24 8 36 -11 73 -16 32 -20 50 -13 62 6 10 5 28 -1 49 -6 17 -13 43 -16 57 -2 14 -22 43 -42 66 -57 62 -118 135 -122 147 -2 6 -26 38 -52 71 -27 33 -49 63 -49 68 0 4 -10 18 -22 31 -13 13 -33 35 -45 50 -27 32 -63 35 -88 7z" fill="#212153"/>
<path d="M3425 2583 c-65 -74 -166 -200 -225 -280 -35 -48 -79 -105 -96 -126 -21 -24 -34 -54 -38 -80 -3 -23 -12 -96 -21 -162 -9 -66 -19 -140 -22 -165 -3 -25 -9 -49 -14 -55 -5 -5 -9 -24 -9 -42 0 -47 10 -45 120 15 20 12 60 33 150 80 145 76 163 87 174 106 16 28 22 37 54 76 16 19 40 55 53 78 49 89 56 100 87 140 18 22 32 43 32 46 0 9 53 89 63 97 14 10 36 83 29 96 -8 13 -52 45 -137 99 -33 21 -78 53 -99 71 -48 40 -69 41 -101 6z" fill="#212153"/>
<path d="M8285 2389 c-33 -22 -69 -45 -80 -50 -11 -5 -29 -14 -40 -21 -43 -25 -51 -29 -92 -48 -32 -14 -43 -25 -43 -42 0 -13 26 -77 59 -143 91 -186 148 -306 164 -347 9 -22 28 -43 46 -52 17 -9 56 -34 87 -56 32 -22 62 -40 67 -40 5 0 21 -12 36 -26 14 -14 61 -48 103 -76 81 -53 113 -57 103 -16 -7 30 -7 125 0 262 7 128 -2 162 -71 261 -24 34 -55 86 -70 116 -15 30 -34 63 -44 74 -10 11 -24 32 -31 47 -56 107 -114 198 -128 198 -3 0 -33 -19 -66 -41z" fill="#212153"/>
<path d="M3840 2328 c-11 -12 -20 -26 -20 -30 0 -5 -12 -27 -27 -51 -15 -23 -38 -62 -52 -87 -13 -25 -35 -60 -49 -77 -26 -36 -92 -142 -92 -151 0 -3 -15 -24 -34 -47 l-35 -42 -5 -139 c-9 -206 -9 -245 -3 -289 3 -22 6 -50 6 -62 1 -33 22 -28 61 12 19 19 38 35 42 35 4 0 28 16 54 35 25 19 51 35 58 35 7 0 21 9 31 20 9 10 36 29 58 40 67 35 107 71 107 95 0 12 7 28 15 35 8 7 25 35 38 63 12 28 57 120 100 205 42 84 77 158 77 164 0 6 7 19 16 29 23 25 11 46 -38 69 -49 23 -95 50 -155 91 -23 16 -47 29 -53 29 -7 0 -23 9 -37 20 -32 25 -38 25 -63 -2z" fill="#212153"/>
<path d="M7890 2181 c-14 -7 -57 -28 -169 -80 -25 -12 -49 -21 -54 -21 -14 0 -81 -33 -89 -44 -3 -5 2 -21 12 -35 10 -14 28 -62 40 -105 12 -44 30 -98 40 -120 10 -23 28 -75 40 -116 11 -41 27 -88 35 -105 7 -16 18 -43 24 -58 6 -15 25 -36 42 -45 17 -9 54 -41 82 -69 28 -29 55 -53 61 -53 6 0 43 -31 83 -69 79 -77 109 -91 106 -51 -1 14 6 50 14 80 18 60 22 107 28 278 4 101 2 117 -17 150 -37 64 -118 231 -118 243 0 6 -6 23 -14 37 -31 59 -53 109 -60 136 -11 47 -48 67 -86 47z" fill="#212153"/>
<path d="M4282 2103 c-11 -10 -35 -52 -52 -93 -17 -41 -35 -79 -41 -84 -5 -6 -9 -18 -9 -28 0 -11 -16 -44 -35 -74 -19 -30 -35 -62 -35 -71 0 -9 -19 -48 -41 -87 l-41 -71 0 -137 c1 -94 5 -144 14 -160 8 -14 13 -57 13 -113 0 -83 2 -90 20 -93 14 -2 46 20 94 64 41 36 106 90 145 119 95 70 132 113 151 177 8 29 21 67 29 83 8 17 26 68 41 114 14 47 33 94 41 105 8 11 14 27 14 36 0 16 43 126 54 137 23 23 -9 72 -47 73 -10 0 -35 9 -55 19 -20 11 -57 27 -82 37 -25 9 -68 28 -97 41 -62 28 -56 27 -81 6z" fill="#212153"/>
<path d="M7455 2000 c-16 -4 -40 -12 -52 -18 -12 -7 -29 -12 -38 -12 -9 0 -35 -9 -57 -20 -23 -11 -50 -20 -59 -20 -10 0 -38 -9 -63 -20 -58 -24 -63 -45 -36 -146 11 -43 22 -88 24 -99 7 -43 38 -171 47 -193 5 -13 9 -35 9 -50 0 -15 7 -48 15 -74 11 -39 36 -70 145 -180 73 -73 139 -145 148 -161 30 -51 72 -47 72 6 0 18 10 70 21 117 29 126 49 220 56 263 5 35 -13 118 -38 172 -10 23 -56 156 -99 290 -16 50 -30 100 -30 112 0 28 -27 42 -65 33z" fill="#212153"/>
<path d="M4736 1909 c-14 -17 -26 -38 -26 -47 0 -9 -7 -26 -15 -36 -8 -11 -15 -34 -15 -51 0 -17 -9 -50 -20 -73 -11 -23 -23 -57 -27 -75 -3 -17 -16 -54 -28 -82 -45 -104 -66 -184 -54 -207 6 -11 9 -35 6 -52 -3 -19 3 -55 14 -86 10 -30 19 -74 19 -99 0 -47 18 -111 32 -111 4 0 8 -18 8 -40 0 -51 26 -66 49 -29 9 13 38 47 66 74 27 28 93 96 145 152 101 107 99 105 121 242 6 36 15 74 21 85 6 11 16 45 23 75 12 52 33 135 55 221 4 19 12 45 15 57 6 18 3 23 -16 27 -62 13 -88 18 -132 26 -27 5 -63 18 -81 28 -17 10 -55 22 -83 26 -48 6 -52 5 -77 -25z" fill="#212153"/>
<path d="M6925 1851 c-22 -4 -45 -10 -51 -13 -6 -4 -47 -12 -92 -17 -124 -16 -125 -16 -118 -114 13 -194 16 -220 24 -231 4 -6 9 -61 10 -122 3 -130 11 -152 113 -281 102 -130 149 -195 149 -208 0 -18 37 -48 52 -42 8 2 24 40 36 83 13 44 31 99 41 124 19 47 39 103 74 207 20 60 20 63 3 82 -11 12 -21 47 -27 94 -5 41 -16 97 -24 123 -8 27 -15 64 -15 82 0 18 -7 47 -16 64 -9 17 -19 58 -22 90 -4 52 -8 61 -33 73 -30 16 -40 16 -104 6z" fill="#212153"/>
<path d="M5217 1823 c-4 -3 -7 -14 -7 -24 0 -9 -7 -30 -15 -45 -8 -16 -15 -39 -15 -51 0 -12 -7 -48 -16 -80 -9 -32 -22 -98 -28 -148 -6 -49 -19 -101 -28 -115 -27 -44 -30 -126 -6 -205 11 -38 22 -79 24 -90 2 -11 17 -58 33 -105 17 -47 31 -99 31 -116 0 -69 52 -85 82 -25 9 19 30 48 46 65 15 17 41 51 58 76 33 50 53 76 107 136 37 41 46 71 27 90 -6 6 -3 23 9 49 11 22 22 65 24 95 3 30 10 88 16 129 8 54 8 78 0 88 -8 9 -8 17 -2 26 6 6 13 32 16 57 3 25 9 64 13 87 9 56 -7 77 -51 69 -19 -4 -47 0 -69 9 -20 9 -68 16 -107 17 -38 0 -72 5 -75 10 -6 10 -58 11 -67 1z" fill="#212153"/>
<path d="M6507 1783 c-4 -3 -42 -8 -84 -9 -92 -4 -228 -20 -243 -29 -6 -4 -10 -111 -10 -311 l0 -306 30 -30 c17 -16 30 -40 30 -53 0 -14 13 -39 29 -58 16 -18 37 -52 46 -75 10 -23 21 -42 26 -42 5 0 9 -6 9 -14 0 -8 11 -27 23 -43 13 -15 27 -41 31 -56 10 -43 36 -30 56 28 10 28 31 74 49 103 17 29 31 58 31 65 0 7 19 50 42 96 39 79 43 91 46 179 1 52 -2 108 -8 126 -5 17 -12 81 -14 142 -1 62 -8 120 -15 133 -9 15 -11 41 -6 76 5 41 3 56 -10 69 -17 16 -46 21 -58 9z" fill="#212153"/>
<path d="M5670 1693 c0 -39 -3 -73 -7 -77 -4 -4 -6 -37 -5 -74 2 -37 -1 -81 -7 -98 -6 -21 -6 -35 1 -42 12 -12 -6 -95 -25 -119 -15 -21 -4 -168 14 -189 9 -11 20 -33 23 -50 4 -18 16 -40 27 -50 10 -9 19 -24 19 -33 0 -9 18 -52 40 -96 22 -44 40 -84 40 -90 0 -5 9 -21 20 -35 l20 -25 35 39 c19 21 44 58 56 82 11 24 25 47 30 50 6 3 21 29 34 57 14 29 41 81 60 117 l35 65 0 295 c0 162 -4 300 -8 307 -5 7 -57 13 -147 17 -77 3 -166 8 -197 12 l-58 6 0 -69z" fill="#212153"/>
</g>
</svg>